<svg width="90" height="17" viewBox="0 0 90 17" fill="none" xmlns="http://www.w3.org/2000/svg">
<rect x="1.13208" y="0.5" width="88.2044" height="15.3509" rx="7.67543" stroke="#E9E9EB"/>
<path d="M70.0531 13.331C69.4366 13.331 68.8864 13.1735 68.4025 12.8587C67.9219 12.5405 67.5441 12.0881 67.269 11.5014C66.9972 10.9115 66.8613 10.2038 66.8613 9.37855C66.8613 8.55327 66.9989 7.8473 67.274 7.26065C67.5524 6.67401 67.9335 6.22491 68.4174 5.91335C68.9013 5.6018 69.4499 5.44602 70.063 5.44602C70.537 5.44602 70.9181 5.52557 71.2065 5.68466C71.4982 5.84044 71.7235 6.02273 71.8826 6.23153C72.045 6.44034 72.171 6.62429 72.2605 6.78338H72.35V3H73.8365V13.1818H72.3848V11.9936H72.2605C72.171 12.156 72.0417 12.3416 71.8727 12.5504C71.707 12.7592 71.4783 12.9415 71.1866 13.0973C70.8949 13.2531 70.5171 13.331 70.0531 13.331ZM70.3812 12.0632C70.8088 12.0632 71.17 11.9505 71.465 11.7251C71.7633 11.4964 71.9887 11.1799 72.1412 10.7756C72.2969 10.3712 72.3748 9.90057 72.3748 9.36364C72.3748 8.83333 72.2986 8.36932 72.1461 7.97159C71.9937 7.57386 71.7699 7.26397 71.475 7.0419C71.18 6.81984 70.8154 6.70881 70.3812 6.70881C69.9338 6.70881 69.5609 6.82481 69.2626 7.05682C68.9643 7.28883 68.7389 7.60535 68.5865 8.00639C68.4373 8.40743 68.3627 8.85985 68.3627 9.36364C68.3627 9.87405 68.439 10.3331 68.5914 10.7408C68.7439 11.1484 68.9693 11.4716 69.2676 11.7102C69.5692 11.9455 69.9404 12.0632 70.3812 12.0632Z" fill="#202533"/>
<path d="M62.2688 13.336C61.5164 13.336 60.8684 13.1752 60.3249 12.8537C59.7846 12.5289 59.367 12.0732 59.072 11.4865C58.7804 10.8966 58.6345 10.2055 58.6345 9.41337C58.6345 8.63118 58.7804 7.94178 59.072 7.34519C59.367 6.7486 59.778 6.28293 60.305 5.94817C60.8353 5.61342 61.4551 5.44604 62.1644 5.44604C62.5952 5.44604 63.0128 5.5173 63.4172 5.65982C63.8215 5.80234 64.1845 6.02606 64.506 6.33099C64.8275 6.63591 65.081 7.03198 65.2666 7.5192C65.4522 8.0031 65.545 8.5914 65.545 9.28411V9.8111H59.4747V8.69746H64.0884C64.0884 8.30637 64.0088 7.96001 63.8497 7.6584C63.6906 7.35348 63.4669 7.11318 63.1786 6.93752C62.8935 6.76186 62.5588 6.67403 62.1743 6.67403C61.7567 6.67403 61.3921 6.77677 61.0805 6.98227C60.7723 7.18444 60.5337 7.4496 60.3646 7.77772C60.1989 8.10253 60.1161 8.45551 60.1161 8.83667V9.7067C60.1161 10.2171 60.2055 10.6513 60.3845 11.0093C60.5668 11.3672 60.8204 11.6406 61.1452 11.8296C61.47 12.0152 61.8495 12.108 62.2837 12.108C62.5654 12.108 62.8223 12.0682 63.0543 11.9887C63.2863 11.9058 63.4868 11.7832 63.6558 11.6208C63.8249 11.4584 63.9541 11.2578 64.0436 11.0192L65.4506 11.2727C65.3379 11.687 65.1357 12.05 64.844 12.3615C64.5557 12.6698 64.1928 12.9101 63.7553 13.0824C63.3211 13.2514 62.8256 13.336 62.2688 13.336Z" fill="#202533"/>
<path d="M53.8781 13.1819V5.5455H55.3148V6.75857H55.3944C55.5336 6.34758 55.7789 6.02443 56.1302 5.78911C56.4848 5.55047 56.8859 5.43115 57.3333 5.43115C57.4261 5.43115 57.5355 5.43447 57.6614 5.4411C57.7907 5.44772 57.8918 5.45601 57.9647 5.46595V6.88783C57.905 6.87126 57.799 6.85303 57.6465 6.83314C57.4941 6.80994 57.3416 6.79834 57.1891 6.79834C56.8378 6.79834 56.5246 6.87291 56.2495 7.02206C55.9777 7.16789 55.7623 7.37173 55.6032 7.63357C55.4441 7.89209 55.3646 8.18707 55.3646 8.51851V13.1819H53.8781Z" fill="#202533"/>
<path d="M50.3892 10.0149V5.54541H51.8807V13.1818H50.4191V11.8593H50.3395C50.1639 12.267 49.8821 12.6067 49.4944 12.8785C49.1099 13.147 48.6309 13.2812 48.0576 13.2812C47.567 13.2812 47.1328 13.1735 46.755 12.9581C46.3805 12.7393 46.0855 12.4161 45.8701 11.9886C45.6579 11.561 45.5519 11.0324 45.5519 10.4027V5.54541H47.0384V10.2237C47.0384 10.744 47.1826 11.1583 47.4709 11.4666C47.7593 11.7748 48.1338 11.9289 48.5945 11.9289C48.8729 11.9289 49.1497 11.8593 49.4247 11.7201C49.7032 11.5809 49.9335 11.3705 50.1158 11.0887C50.3014 10.807 50.3926 10.4491 50.3892 10.0149Z" fill="#202533"/>
<path d="M43.9075 5.54549V6.73867H39.7363V5.54549H43.9075ZM40.8549 3.71594H42.3414V10.9397C42.3414 11.228 42.3845 11.4451 42.4707 11.5909C42.5569 11.7335 42.6679 11.8312 42.8038 11.8843C42.943 11.934 43.0938 11.9588 43.2562 11.9588C43.3755 11.9588 43.4799 11.9506 43.5694 11.934C43.6589 11.9174 43.7285 11.9042 43.7782 11.8942L44.0467 13.1222C43.9605 13.1553 43.8379 13.1885 43.6788 13.2216C43.5197 13.2581 43.3208 13.278 43.0822 13.2813C42.6911 13.2879 42.3265 13.2183 41.9885 13.0725C41.6504 12.9266 41.377 12.7013 41.1681 12.3963C40.9593 12.0914 40.8549 11.7086 40.8549 11.2479V3.71594Z" fill="#202533"/>
<path d="M34.5944 13.3509C34.1105 13.3509 33.673 13.2614 33.2819 13.0824C32.8908 12.9001 32.5809 12.6366 32.3522 12.2919C32.1268 11.9472 32.0142 11.5246 32.0142 11.0242C32.0142 10.5933 32.097 10.2387 32.2627 9.96025C32.4285 9.68184 32.6522 9.46143 32.9339 9.29903C33.2156 9.13662 33.5305 9.01399 33.8785 8.93113C34.2265 8.84827 34.5812 8.7853 34.9424 8.74221C35.3998 8.68918 35.771 8.64609 36.0561 8.61295C36.3411 8.57649 36.5483 8.51849 36.6775 8.43894C36.8068 8.3594 36.8714 8.23014 36.8714 8.05116V8.01636C36.8714 7.58217 36.7488 7.24576 36.5035 7.00712C36.2616 6.76849 35.9003 6.64917 35.4197 6.64917C34.9192 6.64917 34.5248 6.7602 34.2365 6.98227C33.9514 7.20102 33.7542 7.44462 33.6448 7.71309L32.2478 7.39491C32.4135 6.93089 32.6555 6.55637 32.9737 6.27133C33.2952 5.98298 33.6647 5.77417 34.0823 5.64491C34.5 5.51233 34.9391 5.44604 35.3998 5.44604C35.7047 5.44604 36.0279 5.4825 36.3693 5.55542C36.714 5.62502 37.0355 5.75428 37.3338 5.9432C37.6354 6.13212 37.8823 6.40225 38.0745 6.75357C38.2668 7.10158 38.3629 7.554 38.3629 8.11082V13.1818H36.9112V12.1378H36.8515C36.7554 12.33 36.6112 12.519 36.419 12.7046C36.2268 12.8902 35.9798 13.0443 35.6782 13.1669C35.3766 13.2896 35.0153 13.3509 34.5944 13.3509ZM34.9176 12.1577C35.3286 12.1577 35.6799 12.0765 35.9715 11.9141C36.2665 11.7517 36.4902 11.5396 36.6427 11.2777C36.7985 11.0126 36.8764 10.7292 36.8764 10.4276V9.4432C36.8233 9.49623 36.7206 9.54595 36.5681 9.59235C36.419 9.63544 36.2483 9.67355 36.0561 9.7067C35.8638 9.73653 35.6766 9.7647 35.4943 9.79121C35.312 9.81442 35.1595 9.8343 35.0369 9.85087C34.7485 9.88733 34.485 9.94865 34.2464 10.0348C34.0111 10.121 33.8222 10.2453 33.6796 10.4077C33.5404 10.5668 33.4708 10.7789 33.4708 11.0441C33.4708 11.412 33.6067 11.6904 33.8785 11.8793C34.1503 12.0649 34.4966 12.1577 34.9176 12.1577Z" fill="#202533"/>
<path d="M27.4465 13.336C26.6941 13.336 26.0462 13.1752 25.5026 12.8537C24.9624 12.5289 24.5447 12.0732 24.2498 11.4865C23.9581 10.8966 23.8123 10.2055 23.8123 9.41337C23.8123 8.63118 23.9581 7.94178 24.2498 7.34519C24.5447 6.7486 24.9557 6.28293 25.4827 5.94817C26.013 5.61342 26.6328 5.44604 27.3421 5.44604C27.773 5.44604 28.1906 5.5173 28.5949 5.65982C28.9993 5.80234 29.3622 6.02606 29.6837 6.33099C30.0052 6.63591 30.2588 7.03198 30.4444 7.5192C30.63 8.0031 30.7228 8.5914 30.7228 9.28411V9.8111H24.6525V8.69746H29.2661C29.2661 8.30637 29.1865 7.96001 29.0275 7.6584C28.8684 7.35348 28.6446 7.11318 28.3563 6.93752C28.0713 6.76186 27.7365 6.67403 27.352 6.67403C26.9344 6.67403 26.5698 6.77677 26.2583 6.98227C25.95 7.18444 25.7114 7.4496 25.5424 7.77772C25.3767 8.10253 25.2938 8.45551 25.2938 8.83667V9.7067C25.2938 10.2171 25.3833 10.6513 25.5623 11.0093C25.7445 11.3672 25.9981 11.6406 26.3229 11.8296C26.6477 12.0152 27.0272 12.108 27.4614 12.108C27.7431 12.108 28 12.0682 28.232 11.9887C28.464 11.9058 28.6645 11.7832 28.8336 11.6208C29.0026 11.4584 29.1319 11.2578 29.2213 11.0192L30.6283 11.2727C30.5156 11.687 30.3134 12.05 30.0218 12.3615C29.7334 12.6698 29.3705 12.9101 28.933 13.0824C28.4988 13.2514 28.0033 13.336 27.4465 13.336Z" fill="#202533"/>
<path d="M16.6321 13.1818V3H22.946V4.32244H18.1683V7.42472H22.4936V8.74219H18.1683V13.1818H16.6321Z" fill="#202533"/>
</svg>
