<svg width="348" height="20" viewBox="0 0 348 20" fill="none" xmlns="http://www.w3.org/2000/svg">
<path d="M347.209 1.54553L346.876 13.7671H343.757L343.416 1.54553H347.209ZM345.317 19.2217C344.754 19.2217 344.271 19.0228 343.868 18.6251C343.465 18.2217 343.266 17.7387 343.271 17.1762C343.266 16.6194 343.465 16.1421 343.868 15.7444C344.271 15.3467 344.754 15.1478 345.317 15.1478C345.857 15.1478 346.331 15.3467 346.74 15.7444C347.149 16.1421 347.357 16.6194 347.362 17.1762C347.357 17.5512 347.257 17.895 347.064 18.2075C346.876 18.5143 346.629 18.7614 346.323 18.9489C346.016 19.1308 345.68 19.2217 345.317 19.2217Z" fill="#0E1422"/>
<path d="M334.493 19.2557C333.146 19.2557 331.987 18.983 331.016 18.4375C330.05 17.8864 329.305 17.108 328.783 16.1023C328.26 15.0909 327.999 13.8949 327.999 12.5142C327.999 11.1676 328.26 9.98581 328.783 8.96876C329.305 7.95172 330.041 7.1591 330.99 6.59092C331.945 6.02274 333.064 5.73865 334.348 5.73865C335.212 5.73865 336.016 5.87785 336.76 6.15626C337.51 6.42899 338.163 6.84092 338.72 7.39206C339.283 7.94319 339.72 8.63637 340.033 9.4716C340.345 10.3011 340.501 11.2727 340.501 12.3864V13.3835H329.447V11.1335H337.084C337.084 10.6108 336.97 10.1477 336.743 9.74433C336.516 9.34092 336.2 9.02558 335.797 8.79831C335.399 8.56535 334.936 8.44888 334.408 8.44888C333.857 8.44888 333.368 8.57672 332.942 8.8324C332.521 9.0824 332.192 9.42046 331.953 9.8466C331.714 10.2671 331.592 10.7358 331.587 11.2529V13.3921C331.587 14.0398 331.706 14.5994 331.945 15.071C332.189 15.5426 332.533 15.9063 332.976 16.1619C333.419 16.4176 333.945 16.5455 334.553 16.5455C334.956 16.5455 335.325 16.4886 335.66 16.375C335.996 16.2614 336.283 16.0909 336.521 15.8636C336.76 15.6364 336.942 15.358 337.067 15.0284L340.425 15.25C340.254 16.0568 339.905 16.7614 339.376 17.3636C338.854 17.9602 338.178 18.4261 337.348 18.7614C336.524 19.0909 335.572 19.2557 334.493 19.2557Z" fill="#0E1422"/>
<path d="M325.943 9.64206L322.619 9.8466C322.562 9.56251 322.44 9.30683 322.252 9.07956C322.065 8.8466 321.818 8.66194 321.511 8.52558C321.21 8.38353 320.849 8.31251 320.428 8.31251C319.866 8.31251 319.391 8.43183 319.005 8.67047C318.619 8.90342 318.425 9.21592 318.425 9.60797C318.425 9.92047 318.55 10.1847 318.8 10.4006C319.05 10.6165 319.479 10.7898 320.087 10.9205L322.457 11.3977C323.729 11.6591 324.678 12.0796 325.303 12.6591C325.928 13.2386 326.241 14 326.241 14.9432C326.241 15.8011 325.988 16.554 325.482 17.2017C324.982 17.8494 324.295 18.3551 323.42 18.7188C322.55 19.0767 321.548 19.2557 320.411 19.2557C318.678 19.2557 317.298 18.8949 316.269 18.1733C315.246 17.446 314.647 16.4574 314.471 15.2074L318.042 15.0199C318.15 15.5483 318.411 15.9517 318.826 16.2301C319.241 16.5029 319.772 16.6392 320.42 16.6392C321.056 16.6392 321.568 16.5171 321.954 16.2727C322.346 16.0227 322.545 15.7017 322.55 15.3097C322.545 14.9801 322.406 14.7102 322.133 14.5C321.86 14.2841 321.44 14.1193 320.872 14.0057L318.604 13.554C317.326 13.2983 316.374 12.8551 315.749 12.2244C315.13 11.5938 314.82 10.7898 314.82 9.81251C314.82 8.9716 315.048 8.24717 315.502 7.63922C315.962 7.03126 316.607 6.56251 317.437 6.23297C318.272 5.90342 319.249 5.73865 320.369 5.73865C322.022 5.73865 323.323 6.08808 324.272 6.78694C325.227 7.48581 325.783 8.43751 325.943 9.64206Z" fill="#0E1422"/>
<path d="M308.511 19V5.90914H312.142V19H308.511ZM310.335 4.22164C309.795 4.22164 309.332 4.04266 308.946 3.6847C308.565 3.32107 308.375 2.88641 308.375 2.38073C308.375 1.88073 308.565 1.45175 308.946 1.0938C309.332 0.730158 309.795 0.54834 310.335 0.54834C310.875 0.54834 311.335 0.730158 311.716 1.0938C312.102 1.45175 312.295 1.88073 312.295 2.38073C312.295 2.88641 312.102 3.32107 311.716 3.6847C311.335 4.04266 310.875 4.22164 310.335 4.22164Z" fill="#0E1422"/>
<path d="M298.077 19.2131C297.083 19.2131 296.183 18.9575 295.376 18.4461C294.575 17.9291 293.938 17.1705 293.467 16.1705C293.001 15.1649 292.768 13.9319 292.768 12.4717C292.768 10.9717 293.009 9.72451 293.492 8.73019C293.975 7.73019 294.617 6.98303 295.418 6.48871C296.225 5.98871 297.109 5.73871 298.069 5.73871C298.802 5.73871 299.413 5.86371 299.901 6.11371C300.396 6.35803 300.793 6.66485 301.095 7.03417C301.401 7.3978 301.634 7.75576 301.793 8.10803H301.904V1.54553H305.526V19.0001H301.947V16.9035H301.793C301.623 17.2671 301.381 17.6279 301.069 17.9859C300.762 18.3381 300.362 18.6308 299.867 18.8637C299.379 19.0967 298.782 19.2131 298.077 19.2131ZM299.228 16.3239C299.813 16.3239 300.308 16.1649 300.711 15.8467C301.12 15.5228 301.433 15.0711 301.648 14.4916C301.87 13.912 301.981 13.233 301.981 12.4546C301.981 11.6762 301.873 11.0001 301.657 10.4262C301.441 9.85235 301.129 9.40917 300.72 9.09667C300.31 8.78417 299.813 8.62792 299.228 8.62792C298.631 8.62792 298.129 8.78985 297.72 9.11371C297.31 9.43758 297.001 9.88644 296.791 10.4603C296.58 11.0342 296.475 11.6989 296.475 12.4546C296.475 13.216 296.58 13.8893 296.791 14.4745C297.006 15.0541 297.316 15.5086 297.72 15.8381C298.129 16.162 298.631 16.3239 299.228 16.3239Z" fill="#0E1422"/>
<path d="M283.065 19.2472C282.229 19.2472 281.485 19.1023 280.832 18.8125C280.178 18.5171 279.661 18.0824 279.281 17.5085C278.906 16.929 278.718 16.2074 278.718 15.3438C278.718 14.6165 278.852 14.0057 279.119 13.5114C279.386 13.0171 279.749 12.6193 280.209 12.3182C280.67 12.0171 281.192 11.7898 281.778 11.6364C282.369 11.483 282.988 11.375 283.636 11.3125C284.397 11.233 285.011 11.1591 285.477 11.0909C285.942 11.0171 286.28 10.9091 286.491 10.7671C286.701 10.625 286.806 10.4148 286.806 10.1364V10.0852C286.806 9.54547 286.636 9.12785 286.295 8.8324C285.959 8.53694 285.482 8.38922 284.863 8.38922C284.209 8.38922 283.69 8.5341 283.303 8.82388C282.917 9.10797 282.661 9.46592 282.536 9.89774L279.178 9.62501C279.349 8.82956 279.684 8.14206 280.184 7.56251C280.684 6.97728 281.329 6.52842 282.119 6.21592C282.914 5.89774 283.834 5.73865 284.88 5.73865C285.607 5.73865 286.303 5.82388 286.968 5.99433C287.638 6.16478 288.232 6.42899 288.749 6.78694C289.272 7.1449 289.684 7.60513 289.985 8.16763C290.286 8.72444 290.437 9.39206 290.437 10.1705V19H286.994V17.1847H286.891C286.681 17.5938 286.4 17.9546 286.048 18.2671C285.695 18.5739 285.272 18.8154 284.778 18.9915C284.283 19.1619 283.712 19.2472 283.065 19.2472ZM284.104 16.7415C284.638 16.7415 285.11 16.6364 285.519 16.4261C285.928 16.2102 286.249 15.9205 286.482 15.5568C286.715 15.1932 286.832 14.7813 286.832 14.321V12.9318C286.718 13.0057 286.562 13.0739 286.363 13.1364C286.17 13.1932 285.951 13.2472 285.707 13.2983C285.462 13.3438 285.218 13.3864 284.974 13.4261C284.729 13.4602 284.508 13.4915 284.309 13.5199C283.883 13.5824 283.511 13.6818 283.192 13.8182C282.874 13.9546 282.627 14.1392 282.451 14.3722C282.275 14.5994 282.187 14.8835 282.187 15.2244C282.187 15.7188 282.366 16.0966 282.724 16.358C283.087 16.6136 283.548 16.7415 284.104 16.7415Z" fill="#0E1422"/>
<path d="M269.886 19.0001V5.90918H273.406V8.19327H273.543C273.781 7.38077 274.182 6.76713 274.744 6.35236C275.307 5.93191 275.955 5.72168 276.688 5.72168C276.869 5.72168 277.065 5.73304 277.276 5.75577C277.486 5.7785 277.671 5.80975 277.83 5.84952V9.07111C277.659 9.01998 277.423 8.97452 277.122 8.93475C276.821 8.89498 276.546 8.87509 276.296 8.87509C275.761 8.87509 275.284 8.99157 274.864 9.22452C274.449 9.45179 274.119 9.76998 273.875 10.1791C273.636 10.5882 273.517 11.0597 273.517 11.5938V19.0001H269.886Z" fill="#0E1422"/>
<path d="M259.698 19.2472C258.862 19.2472 258.118 19.1023 257.465 18.8125C256.811 18.5171 256.294 18.0824 255.913 17.5085C255.538 16.929 255.351 16.2074 255.351 15.3438C255.351 14.6165 255.484 14.0057 255.752 13.5114C256.019 13.0171 256.382 12.6193 256.842 12.3182C257.303 12.0171 257.825 11.7898 258.411 11.6364C259.002 11.483 259.621 11.375 260.269 11.3125C261.03 11.233 261.644 11.1591 262.109 11.0909C262.575 11.0171 262.913 10.9091 263.124 10.7671C263.334 10.625 263.439 10.4148 263.439 10.1364V10.0852C263.439 9.54547 263.269 9.12785 262.928 8.8324C262.592 8.53694 262.115 8.38922 261.496 8.38922C260.842 8.38922 260.323 8.5341 259.936 8.82388C259.55 9.10797 259.294 9.46592 259.169 9.89774L255.811 9.62501C255.982 8.82956 256.317 8.14206 256.817 7.56251C257.317 6.97728 257.962 6.52842 258.752 6.21592C259.547 5.89774 260.467 5.73865 261.513 5.73865C262.24 5.73865 262.936 5.82388 263.601 5.99433C264.271 6.16478 264.865 6.42899 265.382 6.78694C265.905 7.1449 266.317 7.60513 266.618 8.16763C266.919 8.72444 267.07 9.39206 267.07 10.1705V19H263.627V17.1847H263.524C263.314 17.5938 263.033 17.9546 262.68 18.2671C262.328 18.5739 261.905 18.8154 261.411 18.9915C260.916 19.1619 260.345 19.2472 259.698 19.2472ZM260.737 16.7415C261.271 16.7415 261.743 16.6364 262.152 16.4261C262.561 16.2102 262.882 15.9205 263.115 15.5568C263.348 15.1932 263.465 14.7813 263.465 14.321V12.9318C263.351 13.0057 263.195 13.0739 262.996 13.1364C262.803 13.1932 262.584 13.2472 262.34 13.2983C262.095 13.3438 261.851 13.3864 261.607 13.4261C261.362 13.4602 261.141 13.4915 260.942 13.5199C260.516 13.5824 260.144 13.6818 259.825 13.8182C259.507 13.9546 259.26 14.1392 259.084 14.3722C258.908 14.5994 258.82 14.8835 258.82 15.2244C258.82 15.7188 258.999 16.0966 259.357 16.358C259.72 16.6136 260.18 16.7415 260.737 16.7415Z" fill="#0E1422"/>
<path d="M240.845 19.0001V1.54553H247.732C249.055 1.54553 250.183 1.79837 251.115 2.30406C252.047 2.80406 252.757 3.50008 253.246 4.39212C253.74 5.27849 253.987 6.30121 253.987 7.46031C253.987 8.6194 253.737 9.64212 253.237 10.5285C252.737 11.4149 252.013 12.1052 251.064 12.5995C250.121 13.0938 248.979 13.341 247.638 13.341H243.249V10.3836H247.041C247.751 10.3836 248.337 10.2614 248.797 10.0171C249.263 9.76712 249.609 9.42337 249.837 8.98587C250.07 8.54269 250.186 8.03417 250.186 7.46031C250.186 6.88076 250.07 6.37508 249.837 5.94326C249.609 5.50576 249.263 5.16769 248.797 4.92906C248.331 4.68474 247.74 4.56258 247.024 4.56258H244.536V19.0001H240.845Z" fill="#0E1422"/>
<path d="M223.923 11.4318V19H220.293V5.9091H223.753V8.21876H223.906C224.196 7.4574 224.682 6.85512 225.364 6.41194C226.045 5.96308 226.872 5.73865 227.844 5.73865C228.753 5.73865 229.545 5.93751 230.222 6.33524C230.898 6.73297 231.423 7.30115 231.798 8.03978C232.173 8.77274 232.361 9.64774 232.361 10.6648V19H228.73V11.3125C228.736 10.5114 228.531 9.88637 228.116 9.43751C227.702 8.98297 227.131 8.75569 226.403 8.75569C225.915 8.75569 225.483 8.86081 225.108 9.07103C224.739 9.28126 224.449 9.58808 224.239 9.99149C224.034 10.3892 223.929 10.8693 223.923 11.4318Z" fill="#0E1422"/>
<path d="M211.489 19.2557C210.165 19.2557 209.02 18.9744 208.054 18.4119C207.094 17.8438 206.352 17.054 205.83 16.0426C205.307 15.0256 205.046 13.8466 205.046 12.5057C205.046 11.1534 205.307 9.9716 205.83 8.96024C206.352 7.94319 207.094 7.15342 208.054 6.59092C209.02 6.02274 210.165 5.73865 211.489 5.73865C212.813 5.73865 213.955 6.02274 214.915 6.59092C215.881 7.15342 216.625 7.94319 217.148 8.96024C217.671 9.9716 217.932 11.1534 217.932 12.5057C217.932 13.8466 217.671 15.0256 217.148 16.0426C216.625 17.054 215.881 17.8438 214.915 18.4119C213.955 18.9744 212.813 19.2557 211.489 19.2557ZM211.506 16.4432C212.108 16.4432 212.611 16.2727 213.014 15.9318C213.418 15.5852 213.722 15.1136 213.926 14.5171C214.136 13.9205 214.242 13.2415 214.242 12.4801C214.242 11.7188 214.136 11.0398 213.926 10.4432C213.722 9.8466 213.418 9.37501 213.014 9.02842C212.611 8.68183 212.108 8.50853 211.506 8.50853C210.898 8.50853 210.386 8.68183 209.972 9.02842C209.563 9.37501 209.253 9.8466 209.043 10.4432C208.838 11.0398 208.736 11.7188 208.736 12.4801C208.736 13.2415 208.838 13.9205 209.043 14.5171C209.253 15.1136 209.563 15.5852 209.972 15.9318C210.386 16.2727 210.898 16.4432 211.506 16.4432Z" fill="#0E1422"/>
<path d="M199.035 19V5.90914H202.665V19H199.035ZM200.859 4.22164C200.319 4.22164 199.856 4.04266 199.469 3.6847C199.089 3.32107 198.898 2.88641 198.898 2.38073C198.898 1.88073 199.089 1.45175 199.469 1.0938C199.856 0.730158 200.319 0.54834 200.859 0.54834C201.398 0.54834 201.859 0.730158 202.239 1.0938C202.626 1.45175 202.819 1.88073 202.819 2.38073C202.819 2.88641 202.626 3.32107 202.239 3.6847C201.859 4.04266 201.398 4.22164 200.859 4.22164Z" fill="#0E1422"/>
<path d="M187.689 11.4319V19.0001H184.058V1.54553H187.587V8.21883H187.74C188.035 7.4461 188.513 6.84099 189.172 6.40349C189.831 5.96031 190.658 5.73871 191.652 5.73871C192.561 5.73871 193.354 5.93758 194.03 6.33531C194.712 6.72735 195.24 7.29269 195.615 8.03133C195.996 8.76428 196.183 9.64212 196.178 10.6649V19.0001H192.547V11.3126C192.553 10.5058 192.348 9.87792 191.933 9.42906C191.524 8.98019 190.95 8.75576 190.212 8.75576C189.717 8.75576 189.28 8.86087 188.899 9.0711C188.524 9.28133 188.229 9.58815 188.013 9.99156C187.803 10.3893 187.695 10.8694 187.689 11.4319Z" fill="#0E1422"/>
<path d="M181.474 9.64206L178.15 9.8466C178.093 9.56251 177.971 9.30683 177.783 9.07956C177.596 8.8466 177.349 8.66194 177.042 8.52558C176.741 8.38353 176.38 8.31251 175.96 8.31251C175.397 8.31251 174.923 8.43183 174.536 8.67047C174.15 8.90342 173.957 9.21592 173.957 9.60797C173.957 9.92047 174.082 10.1847 174.332 10.4006C174.582 10.6165 175.011 10.7898 175.619 10.9205L177.988 11.3977C179.261 11.6591 180.21 12.0796 180.835 12.6591C181.46 13.2386 181.772 14 181.772 14.9432C181.772 15.8011 181.519 16.554 181.014 17.2017C180.514 17.8494 179.826 18.3551 178.951 18.7188C178.082 19.0767 177.079 19.2557 175.943 19.2557C174.21 19.2557 172.829 18.8949 171.8 18.1733C170.778 17.446 170.178 16.4574 170.002 15.2074L173.573 15.0199C173.681 15.5483 173.943 15.9517 174.357 16.2301C174.772 16.5029 175.303 16.6392 175.951 16.6392C176.587 16.6392 177.099 16.5171 177.485 16.2727C177.877 16.0227 178.076 15.7017 178.082 15.3097C178.076 14.9801 177.937 14.7102 177.664 14.5C177.391 14.2841 176.971 14.1193 176.403 14.0057L174.136 13.554C172.857 13.2983 171.906 12.8551 171.281 12.2244C170.661 11.5938 170.352 10.7898 170.352 9.81251C170.352 8.9716 170.579 8.24717 171.033 7.63922C171.494 7.03126 172.139 6.56251 172.968 6.23297C173.803 5.90342 174.781 5.73865 175.9 5.73865C177.553 5.73865 178.854 6.08808 179.803 6.78694C180.758 7.48581 181.315 8.43751 181.474 9.64206Z" fill="#0E1422"/>
<path d="M160.393 19.2472C159.558 19.2472 158.813 19.1023 158.16 18.8125C157.506 18.5171 156.989 18.0824 156.609 17.5085C156.234 16.929 156.046 16.2074 156.046 15.3438C156.046 14.6165 156.18 14.0057 156.447 13.5114C156.714 13.0171 157.077 12.6193 157.538 12.3182C157.998 12.0171 158.521 11.7898 159.106 11.6364C159.697 11.483 160.316 11.375 160.964 11.3125C161.725 11.233 162.339 11.1591 162.805 11.0909C163.271 11.0171 163.609 10.9091 163.819 10.7671C164.029 10.625 164.134 10.4148 164.134 10.1364V10.0852C164.134 9.54547 163.964 9.12785 163.623 8.8324C163.288 8.53694 162.81 8.38922 162.191 8.38922C161.538 8.38922 161.018 8.5341 160.631 8.82388C160.245 9.10797 159.989 9.46592 159.864 9.89774L156.506 9.62501C156.677 8.82956 157.012 8.14206 157.512 7.56251C158.012 6.97728 158.657 6.52842 159.447 6.21592C160.242 5.89774 161.163 5.73865 162.208 5.73865C162.935 5.73865 163.631 5.82388 164.296 5.99433C164.967 6.16478 165.56 6.42899 166.077 6.78694C166.6 7.1449 167.012 7.60513 167.313 8.16763C167.614 8.72444 167.765 9.39206 167.765 10.1705V19H164.322V17.1847H164.219C164.009 17.5938 163.728 17.9546 163.376 18.2671C163.023 18.5739 162.6 18.8154 162.106 18.9915C161.611 19.1619 161.04 19.2472 160.393 19.2472ZM161.433 16.7415C161.967 16.7415 162.438 16.6364 162.847 16.4261C163.256 16.2102 163.577 15.9205 163.81 15.5568C164.043 15.1932 164.16 14.7813 164.16 14.321V12.9318C164.046 13.0057 163.89 13.0739 163.691 13.1364C163.498 13.1932 163.279 13.2472 163.035 13.2983C162.79 13.3438 162.546 13.3864 162.302 13.4261C162.058 13.4602 161.836 13.4915 161.637 13.5199C161.211 13.5824 160.839 13.6818 160.521 13.8182C160.202 13.9546 159.955 14.1392 159.779 14.3722C159.603 14.5994 159.515 14.8835 159.515 15.2244C159.515 15.7188 159.694 16.0966 160.052 16.358C160.415 16.6136 160.876 16.7415 161.433 16.7415Z" fill="#0E1422"/>
<path d="M142.853 19.0001V1.54553H154.41V4.58815H146.543V8.74724H153.643V11.7899H146.543V19.0001H142.853Z" fill="#0E1422"/>
<path d="M127.41 19.0001V5.90918H130.93V8.19327H131.066C131.305 7.38077 131.705 6.76713 132.268 6.35236C132.83 5.93191 133.478 5.72168 134.211 5.72168C134.393 5.72168 134.589 5.73304 134.799 5.75577C135.009 5.7785 135.194 5.80975 135.353 5.84952V9.07111C135.183 9.01998 134.947 8.97452 134.646 8.93475C134.344 8.89498 134.069 8.87509 133.819 8.87509C133.285 8.87509 132.808 8.99157 132.387 9.22452C131.972 9.45179 131.643 9.76998 131.398 10.1791C131.16 10.5882 131.04 11.0597 131.04 11.5938V19.0001H127.41Z" fill="#0E1422"/>
<path d="M120.875 13.4262V5.90918H124.506V19.0001H121.02V16.6222H120.884C120.588 17.3893 120.097 18.0058 119.409 18.4717C118.727 18.9376 117.895 19.1705 116.912 19.1705C116.037 19.1705 115.267 18.9717 114.602 18.574C113.937 18.1762 113.418 17.6109 113.043 16.8779C112.673 16.145 112.486 15.2671 112.48 14.2444V5.90918H116.111V13.5967C116.116 14.3694 116.324 14.9802 116.733 15.4291C117.142 15.8779 117.69 16.1024 118.378 16.1024C118.815 16.1024 119.224 16.0029 119.605 15.8041C119.986 15.5995 120.293 15.2984 120.526 14.9007C120.764 14.5029 120.881 14.0115 120.875 13.4262Z" fill="#0E1422"/>
<path d="M109.815 10.2728C109.815 12.1762 109.454 13.7955 108.732 15.1307C108.016 16.466 107.039 17.4859 105.801 18.1904C104.568 18.8893 103.181 19.2387 101.641 19.2387C100.09 19.2387 98.6983 18.8864 97.4653 18.1819C96.2323 17.4773 95.2579 16.4575 94.542 15.1222C93.8261 13.787 93.4681 12.1705 93.4681 10.2728C93.4681 8.36939 93.8261 6.75007 94.542 5.41484C95.2579 4.07961 96.2323 3.06257 97.4653 2.3637C98.6983 1.65916 100.09 1.30688 101.641 1.30688C103.181 1.30688 104.568 1.65916 105.801 2.3637C107.039 3.06257 108.016 4.07961 108.732 5.41484C109.454 6.75007 109.815 8.36939 109.815 10.2728ZM106.073 10.2728C106.073 9.03984 105.889 8.00007 105.519 7.15348C105.156 6.30689 104.641 5.66484 103.977 5.22734C103.312 4.78984 102.533 4.57109 101.641 4.57109C100.749 4.57109 99.971 4.78984 99.3062 5.22734C98.6414 5.66484 98.1244 6.30689 97.7551 7.15348C97.3914 8.00007 97.2096 9.03984 97.2096 10.2728C97.2096 11.5057 97.3914 12.5455 97.7551 13.3921C98.1244 14.2387 98.6414 14.8807 99.3062 15.3182C99.971 15.7557 100.749 15.9745 101.641 15.9745C102.533 15.9745 103.312 15.7557 103.977 15.3182C104.641 14.8807 105.156 14.2387 105.519 13.3921C105.889 12.5455 106.073 11.5057 106.073 10.2728Z" fill="#0E1422"/>
<path d="M79.7742 19.2557C78.4276 19.2557 77.2685 18.983 76.297 18.4375C75.331 17.8864 74.5867 17.108 74.064 16.1023C73.5413 15.0909 73.2799 13.8949 73.2799 12.5142C73.2799 11.1676 73.5413 9.98581 74.064 8.96876C74.5867 7.95172 75.3225 7.1591 76.2714 6.59092C77.2259 6.02274 78.3453 5.73865 79.6293 5.73865C80.493 5.73865 81.2969 5.87785 82.0413 6.15626C82.7913 6.42899 83.4447 6.84092 84.0015 7.39206C84.564 7.94319 85.0015 8.63637 85.314 9.4716C85.6265 10.3011 85.7827 11.2727 85.7827 12.3864V13.3835H74.7288V11.1335H82.3651C82.3651 10.6108 82.2515 10.1477 82.0242 9.74433C81.797 9.34092 81.4816 9.02558 81.0782 8.79831C80.6805 8.56535 80.2174 8.44888 79.689 8.44888C79.1379 8.44888 78.6492 8.57672 78.2231 8.8324C77.8026 9.0824 77.4731 9.42046 77.2345 9.8466C76.9958 10.2671 76.8737 10.7358 76.868 11.2529V13.3921C76.868 14.0398 76.9873 14.5994 77.2259 15.071C77.4702 15.5426 77.814 15.9063 78.2572 16.1619C78.7004 16.4176 79.2259 16.5455 79.8339 16.5455C80.2373 16.5455 80.6066 16.4886 80.9418 16.375C81.2771 16.2614 81.564 16.0909 81.8026 15.8636C82.0413 15.6364 82.2231 15.358 82.3481 15.0284L85.706 15.25C85.5356 16.0568 85.1862 16.7614 84.6577 17.3636C84.135 17.9602 83.4589 18.4261 82.6293 18.7614C81.8055 19.0909 80.8538 19.2557 79.7742 19.2557Z" fill="#0E1422"/>
<path d="M71.2238 9.64206L67.8999 9.8466C67.8431 9.56251 67.7209 9.30683 67.5334 9.07956C67.3459 8.8466 67.0988 8.66194 66.792 8.52558C66.4908 8.38353 66.13 8.31251 65.7096 8.31251C65.1471 8.31251 64.6727 8.43183 64.2863 8.67047C63.8999 8.90342 63.7067 9.21592 63.7067 9.60797C63.7067 9.92047 63.8317 10.1847 64.0817 10.4006C64.3317 10.6165 64.7607 10.7898 65.3687 10.9205L67.738 11.3977C69.0107 11.6591 69.9596 12.0796 70.5846 12.6591C71.2096 13.2386 71.5221 14 71.5221 14.9432C71.5221 15.8011 71.2692 16.554 70.7636 17.2017C70.2636 17.8494 69.5761 18.3551 68.7011 18.7188C67.8317 19.0767 66.8289 19.2557 65.6925 19.2557C63.9596 19.2557 62.5789 18.8949 61.5505 18.1733C60.5278 17.446 59.9283 16.4574 59.7522 15.2074L63.3232 15.0199C63.4312 15.5483 63.6925 15.9517 64.1073 16.2301C64.5221 16.5029 65.0533 16.6392 65.7011 16.6392C66.3374 16.6392 66.8488 16.5171 67.2351 16.2727C67.6272 16.0227 67.8261 15.7017 67.8317 15.3097C67.8261 14.9801 67.6869 14.7102 67.4141 14.5C67.1414 14.2841 66.7209 14.1193 66.1528 14.0057L63.8857 13.554C62.6073 13.2983 61.6556 12.8551 61.0306 12.2244C60.4113 11.5938 60.1016 10.7898 60.1016 9.81251C60.1016 8.9716 60.3289 8.24717 60.7834 7.63922C61.2437 7.03126 61.8886 6.56251 62.7181 6.23297C63.5533 5.90342 64.5306 5.73865 65.6499 5.73865C67.3033 5.73865 68.6045 6.08808 69.5533 6.78694C70.5079 7.48581 71.0647 8.43751 71.2238 9.64206Z" fill="#0E1422"/>
<path d="M42.5 19.0001L38.9375 5.90918H42.6108L44.6392 14.7046H44.7585L46.8722 5.90918H50.4773L52.625 14.6535H52.7358L54.7301 5.90918H58.3949L54.8409 19.0001H50.9972L48.7472 10.7671H48.5852L46.3352 19.0001H42.5Z" fill="#0E1422"/>
<path d="M31.4418 19.2557C30.118 19.2557 28.9731 18.9744 28.0072 18.4119C27.047 17.8438 26.3055 17.054 25.7827 16.0426C25.26 15.0256 24.9987 13.8466 24.9987 12.5057C24.9987 11.1534 25.26 9.9716 25.7827 8.96024C26.3055 7.94319 27.047 7.15342 28.0072 6.59092C28.9731 6.02274 30.118 5.73865 31.4418 5.73865C32.7657 5.73865 33.9077 6.02274 34.868 6.59092C35.8339 7.15342 36.5782 7.94319 37.1009 8.96024C37.6237 9.9716 37.885 11.1534 37.885 12.5057C37.885 13.8466 37.6237 15.0256 37.1009 16.0426C36.5782 17.054 35.8339 17.8438 34.868 18.4119C33.9077 18.9744 32.7657 19.2557 31.4418 19.2557ZM31.4589 16.4432C32.0612 16.4432 32.564 16.2727 32.9674 15.9318C33.3708 15.5852 33.6748 15.1136 33.8793 14.5171C34.0896 13.9205 34.1947 13.2415 34.1947 12.4801C34.1947 11.7188 34.0896 11.0398 33.8793 10.4432C33.6748 9.8466 33.3708 9.37501 32.9674 9.02842C32.564 8.68183 32.0612 8.50853 31.4589 8.50853C30.8509 8.50853 30.3396 8.68183 29.9248 9.02842C29.5157 9.37501 29.206 9.8466 28.9958 10.4432C28.7913 11.0398 28.689 11.7188 28.689 12.4801C28.689 13.2415 28.7913 13.9205 28.9958 14.5171C29.206 15.1136 29.5157 15.5852 29.9248 15.9318C30.3396 16.2727 30.8509 16.4432 31.4589 16.4432Z" fill="#0E1422"/>
<path d="M16.3162 19.0001V5.90918H19.836V8.19327H19.9724C20.211 7.38077 20.6116 6.76713 21.1741 6.35236C21.7366 5.93191 22.3843 5.72168 23.1173 5.72168C23.2991 5.72168 23.4951 5.73304 23.7054 5.75577C23.9156 5.7785 24.1003 5.80975 24.2593 5.84952V9.07111C24.0889 9.01998 23.8531 8.97452 23.552 8.93475C23.2508 8.89498 22.9753 8.87509 22.7253 8.87509C22.1912 8.87509 21.7139 8.99157 21.2934 9.22452C20.8787 9.45179 20.5491 9.76998 20.3048 10.1791C20.0662 10.5882 19.9468 11.0597 19.9468 11.5938V19.0001H16.3162Z" fill="#0E1422"/>
<path d="M0.51709 19.0001V1.54553H7.50573C8.78982 1.54553 9.86084 1.73587 10.7188 2.11656C11.5767 2.49724 12.2216 3.02565 12.6535 3.70178C13.0853 4.37224 13.3012 5.14496 13.3012 6.01996C13.3012 6.70178 13.1648 7.30121 12.8921 7.81826C12.6194 8.32962 12.2444 8.75008 11.7671 9.07962C11.2955 9.40349 10.7557 9.6336 10.1478 9.76996V9.94042C10.8125 9.96883 11.4347 10.1563 12.0142 10.5029C12.5995 10.8495 13.0739 11.3353 13.4375 11.9603C13.8012 12.5796 13.983 13.3183 13.983 14.1762C13.983 15.1024 13.7529 15.9291 13.2927 16.6563C12.8381 17.3779 12.1648 17.9489 11.2728 18.3694C10.3807 18.7899 9.28129 19.0001 7.97448 19.0001H0.51709ZM4.20743 15.983H7.21595C8.24436 15.983 8.99436 15.787 9.46595 15.395C9.93754 14.9972 10.1733 14.4688 10.1733 13.8097C10.1733 13.3268 10.0569 12.9006 9.82391 12.5313C9.59095 12.162 9.25857 11.8722 8.82675 11.662C8.40061 11.4518 7.89209 11.3467 7.30118 11.3467H4.20743V15.983ZM4.20743 8.84951H6.94323C7.44891 8.84951 7.89777 8.76144 8.28982 8.58531C8.68754 8.40349 9.00005 8.14781 9.22732 7.81826C9.46027 7.48871 9.57675 7.09383 9.57675 6.6336C9.57675 6.00292 9.35232 5.4944 8.90345 5.10803C8.46027 4.72167 7.82959 4.52849 7.01141 4.52849H4.20743V8.84951Z" fill="#0E1422"/>
</svg>
