<svg width="23" height="33" viewBox="0 0 23 33" fill="none" xmlns="http://www.w3.org/2000/svg">
<path d="M22.535 9.20185L22.3614 8.33151C22.2052 7.55059 21.8511 6.8127 21.0433 6.53046C20.7845 6.44018 20.4904 6.40136 20.292 6.21449C20.0935 6.02758 20.0347 5.73733 19.9889 5.46815C19.904 4.97411 19.824 4.47966 19.7368 3.98649C19.6616 3.5625 19.6019 3.08617 19.406 2.69722C19.151 2.1749 18.6217 1.86947 18.0953 1.66738C17.8255 1.56746 17.5502 1.48294 17.2709 1.41425C15.9558 1.06997 14.5732 0.9434 13.2203 0.871277C11.5965 0.782373 9.96837 0.809146 8.34841 0.951439C7.14267 1.06026 5.87272 1.19192 4.72691 1.60576C4.30811 1.75725 3.8766 1.93906 3.55815 2.26012C3.16743 2.65459 3.03988 3.26466 3.32516 3.75655C3.52797 4.10589 3.8715 4.35268 4.23585 4.51595C4.71045 4.72633 5.20609 4.8864 5.71454 4.99352C7.13033 5.30405 8.59673 5.42597 10.0431 5.47785C11.6462 5.54207 13.252 5.49002 14.8474 5.32218C15.242 5.27916 15.6358 5.22754 16.029 5.16736C16.4919 5.0969 16.7891 4.49612 16.6527 4.07761C16.4894 3.57726 16.0507 3.38318 15.5545 3.4587C15.4814 3.4701 15.4086 3.48064 15.3355 3.49121L15.2828 3.4988C15.1147 3.51987 14.9466 3.53957 14.7785 3.55785C14.4313 3.59497 14.0833 3.62537 13.7344 3.64897C12.9529 3.70296 12.1693 3.72788 11.3862 3.72913C10.6167 3.72913 9.8467 3.70761 9.07885 3.65742C8.72851 3.63462 8.37904 3.60567 8.03041 3.5705C7.87181 3.55404 7.71367 3.53675 7.55549 3.51734L7.40499 3.49835L7.37226 3.49374L7.21622 3.47135C6.89735 3.4237 6.57847 3.36884 6.26302 3.30261C6.2312 3.29559 6.2027 3.27804 6.1823 3.25281C6.1619 3.22757 6.15077 3.19615 6.15077 3.1638C6.15077 3.13146 6.1619 3.10007 6.1823 3.07484C6.2027 3.0496 6.2312 3.03202 6.26302 3.025H6.26896C6.54236 2.9672 6.81785 2.91784 7.09419 2.8748C7.18633 2.86049 7.27874 2.84639 7.3714 2.83262H7.37394C7.547 2.82122 7.7209 2.79044 7.89308 2.77017C9.3912 2.61555 10.8982 2.56283 12.4036 2.61241C13.1344 2.63348 13.8649 2.67611 14.5923 2.74951C14.7488 2.76556 14.9044 2.78244 15.06 2.8014C15.1195 2.80857 15.1795 2.81703 15.2394 2.8242L15.3602 2.84149C15.7122 2.8935 16.0624 2.95666 16.4107 3.03093C16.9269 3.14228 17.5896 3.17857 17.8194 3.7397C17.8923 3.91773 17.9256 4.11559 17.9659 4.30249L18.0176 4.54083C18.0189 4.54512 18.0198 4.54951 18.0205 4.55393C18.1421 5.11644 18.2638 5.67895 18.3855 6.24149C18.3945 6.28302 18.3949 6.32597 18.3861 6.3676C18.3777 6.40924 18.3606 6.44869 18.3361 6.48347C18.3116 6.51829 18.28 6.54769 18.2435 6.56985C18.207 6.59201 18.166 6.60646 18.1237 6.61232H18.1202L18.046 6.62244L17.9724 6.63214C17.7394 6.66224 17.506 6.69036 17.2725 6.71653C16.8125 6.76854 16.3518 6.81357 15.8903 6.85152C14.9734 6.9272 14.0547 6.97684 13.134 7.00044C12.6649 7.01284 12.196 7.0186 11.7272 7.01774C9.86115 7.01629 7.99675 6.90869 6.14312 6.69542C5.94244 6.67179 5.74178 6.64649 5.5411 6.62074C5.6967 6.64059 5.42801 6.60556 5.3736 6.59797C5.24605 6.58026 5.1185 6.56184 4.99095 6.54269C4.56279 6.47899 4.13722 6.40053 3.70994 6.33177C3.19335 6.24738 2.69932 6.28959 2.23208 6.54269C1.84853 6.75096 1.53811 7.07035 1.34221 7.45819C1.14068 7.87165 1.08075 8.32181 0.990607 8.76604C0.900464 9.21031 0.760166 9.6883 0.813322 10.1444C0.927671 11.1286 1.62112 11.9285 2.61854 12.1074C3.55686 12.2761 4.50031 12.4129 5.44628 12.5293C9.16231 12.9809 12.9165 13.0349 16.6441 12.6905C16.9477 12.6623 17.2509 12.6317 17.5535 12.5985C17.648 12.5882 17.7439 12.599 17.8336 12.6301C17.9233 12.6613 18.005 12.7119 18.0724 12.7784C18.1399 12.8449 18.1918 12.9256 18.2238 13.0144C18.2558 13.1033 18.2674 13.1982 18.2577 13.2921L18.1631 14.2025C17.973 16.0422 17.7829 17.8818 17.5928 19.7212C17.3943 21.6529 17.1946 23.5844 16.9937 25.5157C16.9369 26.0598 16.8803 26.6036 16.8236 27.1474C16.7691 27.6826 16.7615 28.235 16.659 28.7641C16.4975 29.5958 15.9299 30.107 15.1017 30.2937C14.3429 30.465 13.5678 30.555 12.7897 30.562C11.927 30.5665 11.0648 30.5287 10.2021 30.5332C9.28125 30.5383 8.15328 30.4541 7.4424 29.7739C6.81785 29.1766 6.73155 28.2411 6.64651 27.4324C6.53313 26.3618 6.42075 25.2912 6.30937 24.2205L5.68437 18.2682L5.28003 14.4168C5.27325 14.3531 5.26644 14.2902 5.26005 14.2261C5.21161 13.7667 4.8838 13.317 4.36724 13.3401C3.92505 13.3596 3.42253 13.7325 3.4744 14.2261L3.77413 17.0814L4.394 22.9879C4.5706 24.6657 4.74676 26.3436 4.92249 28.0217C4.95651 28.3433 4.9884 28.6658 5.02409 28.987C5.21839 30.7439 6.5704 31.6906 8.24468 31.9571C9.22257 32.1134 10.2242 32.1454 11.2166 32.1614C12.4886 32.1816 13.7735 32.2303 15.0247 32.0016C16.8789 31.6641 18.27 30.4355 18.4684 28.5297C18.5252 27.9798 18.582 27.4292 18.6385 26.879C18.827 25.0587 19.0152 23.2382 19.2033 21.4176L19.8178 15.469L20.0999 12.7428C20.1138 12.6076 20.1716 12.4805 20.2639 12.3803C20.3565 12.28 20.4791 12.212 20.6134 12.1863C21.1437 12.0838 21.6504 11.9087 22.0277 11.5083C22.628 10.8708 22.7474 10.0397 22.535 9.20185ZM2.59133 9.78998C2.5994 9.78617 2.58452 9.85493 2.57816 9.88702C2.57687 9.8385 2.57942 9.79546 2.59133 9.78998ZM2.64278 10.1849C2.64704 10.1819 2.65978 10.1988 2.67295 10.219C2.65297 10.2005 2.64023 10.1866 2.64236 10.1849H2.64278ZM2.69338 10.2511C2.71165 10.2819 2.72143 10.3013 2.69338 10.2511V10.2511ZM2.79498 10.333H2.79753C2.79753 10.3359 2.80221 10.3388 2.80392 10.3418C2.80108 10.3386 2.79795 10.3356 2.79456 10.333H2.79498ZM20.5889 10.2106C20.3985 10.3903 20.1112 10.4739 19.8278 10.5156C16.6476 10.9839 13.421 11.221 10.2059 11.1164C7.90499 11.0383 5.62824 10.7848 3.35024 10.4654C3.12702 10.4342 2.88513 10.3937 2.73163 10.2304C2.44251 9.92244 2.58452 9.30226 2.65978 8.93018C2.72866 8.58929 2.86047 8.1349 3.26903 8.08638C3.90678 8.01215 4.64742 8.27918 5.27835 8.37411C6.03797 8.48914 6.80042 8.58125 7.56572 8.65046C10.8318 8.94577 14.1527 8.89978 17.4043 8.46778C17.9969 8.38874 18.5875 8.29692 19.1759 8.19229C19.7004 8.09903 20.2813 7.92398 20.5982 8.46272C20.8154 8.82974 20.8442 9.32083 20.8106 9.73554C20.8003 9.91623 20.7209 10.0862 20.5882 10.2106H20.5889Z" fill="#0E1422"/>
</svg>
