<svg width="41" height="11" viewBox="0 0 41 11" fill="none" xmlns="http://www.w3.org/2000/svg">
<path d="M40.2289 2.54048V3.5348H36.2715V2.54048H40.2289ZM37.4249 0.710938H38.5982V7.98935C38.5982 8.32079 38.6462 8.56937 38.7424 8.73509C38.8418 8.89749 38.9677 9.00687 39.1202 9.06321C39.276 9.11624 39.44 9.14276 39.6124 9.14276C39.7417 9.14276 39.8477 9.13613 39.9306 9.12287C40.0134 9.1063 40.0797 9.09304 40.1294 9.0831L40.3681 10.1371C40.2885 10.1669 40.1775 10.1967 40.035 10.2266C39.8925 10.2597 39.7118 10.2763 39.4931 10.2763C39.1616 10.2763 38.8368 10.205 38.5186 10.0625C38.2038 9.91998 37.9419 9.70289 37.7331 9.41122C37.5276 9.11955 37.4249 8.75166 37.4249 8.30753V0.710938Z" fill="#5C5F6A"/>
<path d="M35.0024 4.2507L33.9484 4.54899C33.8821 4.37333 33.7844 4.20264 33.6551 4.03692C33.5292 3.86789 33.3568 3.72868 33.1381 3.61931C32.9193 3.50993 32.6392 3.45524 32.2979 3.45524C31.8305 3.45524 31.4411 3.56296 31.1295 3.7784C30.8213 3.99052 30.6672 4.26064 30.6672 4.58877C30.6672 4.88043 30.7732 5.11078 30.9854 5.27982C31.1975 5.44885 31.5289 5.58971 31.9797 5.7024L33.1132 5.98081C33.796 6.14653 34.3047 6.40008 34.6395 6.74147C34.9742 7.07953 35.1416 7.51538 35.1416 8.04899C35.1416 8.48649 35.0157 8.87759 34.7638 9.22229C34.5152 9.56699 34.1672 9.83877 33.7197 10.0376C33.2723 10.2365 32.7519 10.3359 32.1587 10.3359C31.3798 10.3359 30.7351 10.1669 30.2247 9.82882C29.7143 9.49076 29.3911 8.99691 29.2552 8.34729L30.3689 8.06888C30.4749 8.47987 30.6755 8.7881 30.9704 8.9936C31.2687 9.19909 31.6582 9.30184 32.1388 9.30184C32.6856 9.30184 33.1198 9.18583 33.4413 8.95382C33.7661 8.7185 33.9285 8.43678 33.9285 8.10865C33.9285 7.8435 33.8357 7.62144 33.6501 7.44246C33.4645 7.26017 33.1795 7.12428 32.795 7.03479L31.5223 6.73649C30.823 6.57077 30.3092 6.31391 29.9811 5.9659C29.6563 5.61457 29.4939 5.17541 29.4939 4.64843C29.4939 4.21755 29.6149 3.8364 29.8568 3.50496C30.1021 3.17352 30.4352 2.91334 30.8561 2.72442C31.2803 2.5355 31.7609 2.44104 32.2979 2.44104C33.0535 2.44104 33.6468 2.60676 34.0777 2.9382C34.5119 3.26964 34.8201 3.70714 35.0024 4.2507Z" fill="#5C5F6A"/>
<path d="M24.6466 10.3359C23.9108 10.3359 23.2761 10.1735 22.7425 9.84871C22.2121 9.52059 21.8028 9.0632 21.5145 8.47655C21.2294 7.88659 21.0869 7.20051 21.0869 6.41831C21.0869 5.63611 21.2294 4.94672 21.5145 4.35013C21.8028 3.75022 22.2039 3.2829 22.7176 2.94814C23.2346 2.61007 23.8379 2.44104 24.5273 2.44104C24.925 2.44104 25.3177 2.50733 25.7055 2.6399C26.0933 2.77248 26.4463 2.98791 26.7645 3.28621C27.0827 3.58119 27.3362 3.97229 27.5251 4.45951C27.714 4.94672 27.8085 5.54663 27.8085 6.25922V6.75638H21.9221V5.74218H26.6153C26.6153 5.3113 26.5291 4.92684 26.3568 4.58877C26.1878 4.2507 25.9458 3.98389 25.6309 3.78834C25.3194 3.59279 24.9515 3.49502 24.5273 3.49502C24.0599 3.49502 23.6556 3.61102 23.3142 3.84303C22.9761 4.07172 22.7159 4.37002 22.5336 4.73791C22.3514 5.10581 22.2602 5.50023 22.2602 5.92115V6.59729C22.2602 7.17399 22.3596 7.66287 22.5585 8.06391C22.7607 8.46164 23.0407 8.7649 23.3987 8.97371C23.7567 9.1792 24.1726 9.28195 24.6466 9.28195C24.9548 9.28195 25.2332 9.23886 25.4818 9.15269C25.7337 9.0632 25.9508 8.93062 26.1331 8.75496C26.3154 8.57598 26.4562 8.35392 26.5557 8.08877L27.6892 8.40695C27.5699 8.79142 27.3693 9.12949 27.0876 9.42115C26.8059 9.70951 26.4579 9.93488 26.0436 10.0973C25.6293 10.2564 25.1636 10.3359 24.6466 10.3359Z" fill="#5C5F6A"/>
<path d="M19.7621 2.54048V3.5348H15.8047V2.54048H19.7621ZM16.9581 0.710938H18.1314V7.98935C18.1314 8.32079 18.1795 8.56937 18.2756 8.73509C18.375 8.89749 18.5009 9.00687 18.6534 9.06321C18.8092 9.11624 18.9732 9.14276 19.1456 9.14276C19.2749 9.14276 19.3809 9.13613 19.4638 9.12287C19.5466 9.1063 19.6129 9.09304 19.6626 9.0831L19.9013 10.1371C19.8217 10.1669 19.7107 10.1967 19.5682 10.2266C19.4257 10.2597 19.245 10.2763 19.0263 10.2763C18.6948 10.2763 18.37 10.205 18.0518 10.0625C17.737 9.91998 17.4751 9.70289 17.2663 9.41122C17.0608 9.11955 16.9581 8.75166 16.9581 8.30753V0.710938Z" fill="#5C5F6A"/>
<path d="M10.7994 10.3558C10.3155 10.3558 9.87639 10.2647 9.48198 10.0824C9.08757 9.89677 8.77435 9.62996 8.54235 9.28195C8.31034 8.93062 8.19434 8.50638 8.19434 8.00922C8.19434 7.57172 8.28051 7.21708 8.45286 6.9453C8.62521 6.67021 8.85556 6.45477 9.14391 6.29899C9.43226 6.14322 9.75044 6.02721 10.0985 5.95098C10.4498 5.87144 10.8028 5.80846 11.1574 5.76206C11.6214 5.7024 11.9976 5.65766 12.286 5.62783C12.5776 5.59469 12.7897 5.54 12.9223 5.46377C13.0582 5.38754 13.1262 5.25496 13.1262 5.06604V5.02627C13.1262 4.53574 12.9919 4.15458 12.7235 3.8828C12.4583 3.61102 12.0556 3.47513 11.5154 3.47513C10.9552 3.47513 10.5161 3.59776 10.1979 3.84303C9.87971 4.08829 9.65598 4.35013 9.52672 4.62854L8.41309 4.23081C8.61195 3.7668 8.8771 3.40553 9.20854 3.14701C9.54329 2.88517 9.90788 2.70288 10.3023 2.60013C10.7 2.49407 11.0911 2.44104 11.4756 2.44104C11.7209 2.44104 12.0026 2.47087 12.3208 2.53053C12.6423 2.58687 12.9521 2.70453 13.2504 2.88351C13.5521 3.06249 13.8023 3.33261 14.0012 3.69388C14.2 4.05515 14.2994 4.53905 14.2994 5.14559V10.1768H13.1262V9.14275H13.0665C12.9869 9.30846 12.8544 9.48578 12.6688 9.6747C12.4832 9.86363 12.2362 10.0244 11.928 10.1569C11.6198 10.2895 11.2436 10.3558 10.7994 10.3558ZM10.9784 9.30184C11.4424 9.30184 11.8335 9.21069 12.1517 9.0284C12.4732 8.84611 12.7152 8.61079 12.8776 8.32243C13.0433 8.03408 13.1262 7.73081 13.1262 7.41263V6.33877C13.0764 6.39843 12.9671 6.45311 12.798 6.50283C12.6323 6.54923 12.4401 6.59066 12.2213 6.62712C12.0059 6.66026 11.7954 6.69009 11.5899 6.71661C11.3878 6.73981 11.2237 6.7597 11.0977 6.77627C10.7928 6.81604 10.5078 6.88067 10.2426 6.97016C9.98079 7.05633 9.76867 7.18725 9.60627 7.36291C9.44718 7.53526 9.36763 7.77058 9.36763 8.06888C9.36763 8.47655 9.51844 8.78479 9.82005 8.9936C10.125 9.19909 10.5111 9.30184 10.9784 9.30184Z" fill="#5C5F6A"/>
<path d="M0.836426 10.1768V-0.00500488H2.06938V9.08306H6.80234V10.1768H0.836426Z" fill="#5C5F6A"/>
</svg>
