<svg width="410" height="40" viewBox="0 0 410 40" fill="none" xmlns="http://www.w3.org/2000/svg">
<path d="M128.667 36.0796C128.422 36.0796 128.212 35.9917 128.036 35.8161C127.86 35.6404 127.772 35.4299 127.772 35.1847C127.772 34.9394 127.86 34.729 128.036 34.5533C128.212 34.3776 128.422 34.2898 128.667 34.2898C128.913 34.2898 129.123 34.3776 129.299 34.5533C129.474 34.729 129.562 34.9394 129.562 35.1847C129.562 35.3471 129.521 35.4962 129.438 35.6321C129.358 35.768 129.251 35.8774 129.115 35.9603C128.982 36.0398 128.833 36.0796 128.667 36.0796Z" fill="#5C5F6A"/>
<path d="M125.907 30.0739L124.853 30.3722C124.787 30.1966 124.689 30.0259 124.56 29.8602C124.434 29.6911 124.261 29.5519 124.042 29.4425C123.824 29.3332 123.544 29.2785 123.202 29.2785C122.735 29.2785 122.346 29.3862 122.034 29.6016C121.726 29.8138 121.572 30.0839 121.572 30.412C121.572 30.7037 121.678 30.934 121.89 31.1031C122.102 31.2721 122.433 31.413 122.884 31.5256L124.018 31.8041C124.7 31.9698 125.209 32.2233 125.544 32.5647C125.879 32.9028 126.046 33.3386 126.046 33.8722C126.046 34.3097 125.92 34.7008 125.668 35.0455C125.42 35.3902 125.072 35.662 124.624 35.8609C124.177 36.0597 123.656 36.1592 123.063 36.1592C122.284 36.1592 121.64 35.9901 121.129 35.6521C120.619 35.314 120.296 34.8202 120.16 34.1705L121.273 33.8921C121.379 34.3031 121.58 34.6113 121.875 34.8168C122.173 35.0223 122.563 35.1251 123.043 35.1251C123.59 35.1251 124.024 35.0091 124.346 34.7771C124.671 34.5417 124.833 34.26 124.833 33.9319C124.833 33.6667 124.74 33.4447 124.555 33.2657C124.369 33.0834 124.084 32.9475 123.699 32.858L122.427 32.5597C121.727 32.394 121.214 32.1372 120.886 31.7891C120.561 31.4378 120.398 30.9987 120.398 30.4717C120.398 30.0408 120.519 29.6596 120.761 29.3282C121.006 28.9968 121.34 28.7366 121.761 28.5477C122.185 28.3587 122.665 28.2643 123.202 28.2643C123.958 28.2643 124.551 28.43 124.982 28.7614C125.416 29.0929 125.725 29.5304 125.907 30.0739Z" fill="#5C5F6A"/>
<path d="M115.551 36.1592C114.815 36.1592 114.18 35.9968 113.647 35.672C113.117 35.3438 112.707 34.8864 112.419 34.2998C112.134 33.7098 111.991 33.0238 111.991 32.2416C111.991 31.4594 112.134 30.77 112.419 30.1734C112.707 29.5735 113.108 29.1061 113.622 28.7714C114.139 28.4333 114.742 28.2643 115.432 28.2643C115.829 28.2643 116.222 28.3306 116.61 28.4631C116.998 28.5957 117.351 28.8112 117.669 29.1095C117.987 29.4044 118.241 29.7955 118.43 30.2827C118.618 30.77 118.713 31.3699 118.713 32.0825V32.5796H112.827V31.5654H117.52C117.52 31.1345 117.434 30.7501 117.261 30.412C117.092 30.0739 116.85 29.8071 116.535 29.6116C116.224 29.416 115.856 29.3183 115.432 29.3183C114.964 29.3183 114.56 29.4343 114.219 29.6663C113.881 29.895 113.62 30.1933 113.438 30.5612C113.256 30.9291 113.165 31.3235 113.165 31.7444V32.4205C113.165 32.9972 113.264 33.4861 113.463 33.8871C113.665 34.2849 113.945 34.5881 114.303 34.797C114.661 35.0024 115.077 35.1052 115.551 35.1052C115.859 35.1052 116.138 35.0621 116.386 34.9759C116.638 34.8864 116.855 34.7539 117.037 34.5782C117.22 34.3992 117.361 34.1772 117.46 33.912L118.594 34.2302C118.474 34.6147 118.274 34.9527 117.992 35.2444C117.71 35.5327 117.362 35.7581 116.948 35.9205C116.534 36.0796 116.068 36.1592 115.551 36.1592Z" fill="#5C5F6A"/>
<path d="M109.027 36V28.3636H110.2V36H109.027ZM109.624 27.0909C109.395 27.0909 109.198 27.013 109.032 26.8572C108.87 26.7015 108.788 26.5142 108.788 26.2955C108.788 26.0767 108.87 25.8894 109.032 25.7337C109.198 25.5779 109.395 25.5 109.624 25.5C109.852 25.5 110.048 25.5779 110.21 25.7337C110.376 25.8894 110.459 26.0767 110.459 26.2955C110.459 26.5142 110.376 26.7015 110.21 26.8572C110.048 27.013 109.852 27.0909 109.624 27.0909Z" fill="#5C5F6A"/>
<path d="M103.818 36.0001V28.3637H104.952V29.5171H105.031C105.17 29.1393 105.422 28.8327 105.787 28.5974C106.151 28.362 106.562 28.2444 107.02 28.2444C107.106 28.2444 107.214 28.246 107.343 28.2494C107.472 28.2527 107.57 28.2576 107.636 28.2643V29.4575C107.596 29.4475 107.505 29.4326 107.363 29.4127C107.224 29.3895 107.076 29.3779 106.92 29.3779C106.549 29.3779 106.218 29.4558 105.926 29.6116C105.638 29.764 105.409 29.9762 105.24 30.2479C105.074 30.5164 104.991 30.823 104.991 31.1677V36.0001H103.818Z" fill="#5C5F6A"/>
<path d="M98.5668 36.1592C97.8774 36.1592 97.2725 35.9951 96.7522 35.667C96.2351 35.3389 95.8308 34.8798 95.5391 34.2898C95.2507 33.6999 95.1066 33.0105 95.1066 32.2217C95.1066 31.4262 95.2507 30.7318 95.5391 30.1386C95.8308 29.5453 96.2351 29.0846 96.7522 28.7565C97.2725 28.4283 97.8774 28.2643 98.5668 28.2643C99.2562 28.2643 99.8594 28.4283 100.376 28.7565C100.897 29.0846 101.301 29.5453 101.59 30.1386C101.881 30.7318 102.027 31.4262 102.027 32.2217C102.027 33.0105 101.881 33.6999 101.59 34.2898C101.301 34.8798 100.897 35.3389 100.376 35.667C99.8594 35.9951 99.2562 36.1592 98.5668 36.1592ZM98.5668 35.1052C99.0905 35.1052 99.5213 34.971 99.8594 34.7025C100.197 34.434 100.448 34.081 100.61 33.6435C100.773 33.206 100.854 32.7321 100.854 32.2217C100.854 31.7113 100.773 31.2356 100.61 30.7948C100.448 30.354 100.197 29.9977 99.8594 29.7259C99.5213 29.4541 99.0905 29.3183 98.5668 29.3183C98.0431 29.3183 97.6122 29.4541 97.2742 29.7259C96.9361 29.9977 96.6859 30.354 96.5235 30.7948C96.3611 31.2356 96.2799 31.7113 96.2799 32.2217C96.2799 32.7321 96.3611 33.206 96.5235 33.6435C96.6859 34.081 96.9361 34.434 97.2742 34.7025C97.6122 34.971 98.0431 35.1052 98.5668 35.1052Z" fill="#5C5F6A"/>
<path d="M90.0157 39.0228C89.4489 39.0228 88.9617 38.9499 88.554 38.8041C88.1463 38.6615 87.8066 38.4726 87.5348 38.2373C87.2664 38.0053 87.0526 37.7567 86.8935 37.4916L87.8282 36.8353C87.9342 36.9745 88.0685 37.1336 88.2309 37.3126C88.3933 37.4949 88.6153 37.6523 88.897 37.7849C89.1821 37.9208 89.555 37.9887 90.0157 37.9887C90.6321 37.9887 91.1409 37.8396 91.5419 37.5413C91.943 37.243 92.1435 36.7756 92.1435 36.1393V34.5881H92.0441C91.9579 34.7274 91.8353 34.8997 91.6762 35.1052C91.5204 35.3074 91.295 35.488 91 35.6471C90.7084 35.8029 90.314 35.8808 89.8168 35.8808C89.2003 35.8808 88.6468 35.7349 88.1563 35.4433C87.6691 35.1516 87.2829 34.7274 86.9979 34.1705C86.7162 33.6137 86.5753 32.9376 86.5753 32.1421C86.5753 31.3599 86.7129 30.6788 86.988 30.0988C87.263 29.5155 87.6459 29.0647 88.1364 28.7465C88.6269 28.425 89.1937 28.2643 89.8367 28.2643C90.3338 28.2643 90.7283 28.3471 91.0199 28.5129C91.3149 28.6753 91.5403 28.8609 91.6961 29.0697C91.8551 29.2752 91.9778 29.4442 92.0639 29.5768H92.1833V28.3637H93.3168V36.2188C93.3168 36.8751 93.1676 37.4087 92.8693 37.8197C92.5744 38.234 92.1766 38.5372 91.6762 38.7295C91.179 38.925 90.6255 39.0228 90.0157 39.0228ZM89.9759 34.8268C90.4465 34.8268 90.8443 34.7191 91.1691 34.5036C91.4939 34.2882 91.7408 33.9783 91.9098 33.5739C92.0789 33.1696 92.1634 32.6857 92.1634 32.1222C92.1634 31.572 92.0805 31.0865 91.9148 30.6656C91.7491 30.2446 91.5038 29.9148 91.179 29.6762C90.8542 29.4376 90.4532 29.3183 89.9759 29.3183C89.4787 29.3183 89.0644 29.4442 88.733 29.6961C88.4049 29.948 88.1579 30.2861 87.9922 30.7103C87.8298 31.1345 87.7486 31.6052 87.7486 32.1222C87.7486 32.6525 87.8315 33.1215 87.9972 33.5292C88.1662 33.9335 88.4148 34.2517 88.7429 34.4837C89.0744 34.7124 89.4854 34.8268 89.9759 34.8268Z" fill="#5C5F6A"/>
<path d="M81.9865 36.1592C81.2507 36.1592 80.616 35.9968 80.0824 35.672C79.5521 35.3438 79.1428 34.8864 78.8544 34.2998C78.5694 33.7098 78.4269 33.0238 78.4269 32.2416C78.4269 31.4594 78.5694 30.77 78.8544 30.1734C79.1428 29.5735 79.5438 29.1061 80.0576 28.7714C80.5746 28.4333 81.1778 28.2643 81.8672 28.2643C82.2649 28.2643 82.6577 28.3306 83.0455 28.4631C83.4333 28.5957 83.7862 28.8112 84.1044 29.1095C84.4226 29.4044 84.6762 29.7955 84.8651 30.2827C85.054 30.77 85.1485 31.3699 85.1485 32.0825V32.5796H79.2621V31.5654H83.9553C83.9553 31.1345 83.8691 30.7501 83.6968 30.412C83.5277 30.0739 83.2858 29.8071 82.9709 29.6116C82.6594 29.416 82.2915 29.3183 81.8672 29.3183C81.3999 29.3183 80.9955 29.4343 80.6542 29.6663C80.3161 29.895 80.0559 30.1933 79.8736 30.5612C79.6913 30.9291 79.6002 31.3235 79.6002 31.7444V32.4205C79.6002 32.9972 79.6996 33.4861 79.8985 33.8871C80.1006 34.2849 80.3807 34.5881 80.7387 34.797C81.0966 35.0024 81.5126 35.1052 81.9865 35.1052C82.2948 35.1052 82.5732 35.0621 82.8218 34.9759C83.0737 34.8864 83.2908 34.7539 83.473 34.5782C83.6553 34.3992 83.7962 34.1772 83.8956 33.912L85.0292 34.2302C84.9098 34.6147 84.7093 34.9527 84.4276 35.2444C84.1459 35.5327 83.7979 35.7581 83.3836 35.9205C82.9693 36.0796 82.5036 36.1592 81.9865 36.1592Z" fill="#5C5F6A"/>
<path d="M77.1019 28.3637V29.358H73.1445V28.3637H77.1019ZM74.2979 26.5342H75.4712V33.8126C75.4712 34.144 75.5193 34.3926 75.6154 34.5583C75.7148 34.7207 75.8408 34.8301 75.9933 34.8865C76.149 34.9395 76.3131 34.966 76.4854 34.966C76.6147 34.966 76.7208 34.9594 76.8036 34.9461C76.8865 34.9295 76.9528 34.9163 77.0025 34.9063L77.2411 35.9603C77.1616 35.9901 77.0505 36.02 76.908 36.0498C76.7655 36.0829 76.5849 36.0995 76.3661 36.0995C76.0347 36.0995 75.7099 36.0283 75.3917 35.8857C75.0768 35.7432 74.815 35.5261 74.6062 35.2345C74.4007 34.9428 74.2979 34.5749 74.2979 34.1308V26.5342Z" fill="#5C5F6A"/>
<path d="M68.1394 36.1791C67.6555 36.1791 67.2164 36.0879 66.8219 35.9056C66.4275 35.72 66.1143 35.4532 65.8823 35.1052C65.6503 34.7539 65.5343 34.3296 65.5343 33.8325C65.5343 33.395 65.6205 33.0403 65.7928 32.7685C65.9652 32.4934 66.1955 32.278 66.4839 32.1222C66.7722 31.9665 67.0904 31.8505 67.4384 31.7742C67.7897 31.6947 68.1427 31.6317 68.4974 31.5853C68.9614 31.5256 69.3376 31.4809 69.6259 31.4511C69.9176 31.4179 70.1297 31.3632 70.2623 31.287C70.3982 31.2108 70.4661 31.0782 70.4661 30.8893V30.8495C70.4661 30.359 70.3319 29.9778 70.0634 29.706C69.7983 29.4343 69.3956 29.2984 68.8553 29.2984C68.2952 29.2984 67.856 29.421 67.5378 29.6663C67.2197 29.9115 66.9959 30.1734 66.8667 30.4518L65.7531 30.0541C65.9519 29.59 66.2171 29.2288 66.5485 28.9702C66.8833 28.7084 67.2478 28.5261 67.6423 28.4234C68.04 28.3173 68.4311 28.2643 68.8156 28.2643C69.0608 28.2643 69.3425 28.2941 69.6607 28.3538C69.9822 28.4101 70.2921 28.5278 70.5904 28.7068C70.892 28.8857 71.1423 29.1559 71.3411 29.5171C71.54 29.8784 71.6394 30.3623 71.6394 30.9688V36.0001H70.4661V34.966H70.4065C70.3269 35.1317 70.1943 35.309 70.0087 35.4979C69.8231 35.6869 69.5762 35.8476 69.268 35.9802C68.9597 36.1128 68.5835 36.1791 68.1394 36.1791ZM68.3184 35.1251C68.7824 35.1251 69.1735 35.0339 69.4917 34.8516C69.8132 34.6693 70.0551 34.434 70.2175 34.1457C70.3833 33.8573 70.4661 33.5541 70.4661 33.2359V32.162C70.4164 32.2217 70.307 32.2764 70.138 32.3261C69.9723 32.3725 69.78 32.4139 69.5613 32.4504C69.3459 32.4835 69.1354 32.5133 68.9299 32.5398C68.7277 32.563 68.5637 32.5829 68.4377 32.5995C68.1328 32.6393 67.8477 32.7039 67.5826 32.7934C67.3208 32.8796 67.1086 33.0105 66.9462 33.1862C66.7871 33.3585 66.7076 33.5938 66.7076 33.8921C66.7076 34.2998 66.8584 34.608 67.16 34.8168C67.4649 35.0223 67.8511 35.1251 68.3184 35.1251Z" fill="#5C5F6A"/>
<path d="M61.1742 36.1592C60.4583 36.1592 59.8418 35.9901 59.3248 35.6521C58.8077 35.314 58.41 34.8483 58.1316 34.255C57.8532 33.6618 57.714 32.984 57.714 32.2217C57.714 31.4461 57.8565 30.7617 58.1415 30.1684C58.4299 29.5718 58.8309 29.1061 59.3447 28.7714C59.8617 28.4333 60.4649 28.2643 61.1543 28.2643C61.6913 28.2643 62.1752 28.3637 62.606 28.5626C63.0369 28.7614 63.3899 29.0398 63.665 29.3978C63.9401 29.7558 64.1108 30.1734 64.1771 30.6506H63.0038C62.9143 30.3026 62.7154 29.9944 62.4072 29.7259C62.1022 29.4541 61.6913 29.3183 61.1742 29.3183C60.7168 29.3183 60.3158 29.4376 59.9711 29.6762C59.6297 29.9115 59.3629 30.2446 59.1707 30.6755C58.9817 31.1031 58.8873 31.6052 58.8873 32.1819C58.8873 32.7719 58.9801 33.2856 59.1657 33.7231C59.3546 34.1606 59.6198 34.5003 59.9612 34.7423C60.3058 34.9842 60.7102 35.1052 61.1742 35.1052C61.4791 35.1052 61.7559 35.0522 62.0045 34.9461C62.2531 34.84 62.4635 34.6876 62.6359 34.4887C62.8082 34.2898 62.9308 34.0512 63.0038 33.7728H64.1771C64.1108 34.2236 63.9467 34.6296 63.6849 34.9908C63.4263 35.3488 63.0833 35.6338 62.6558 35.846C62.2315 36.0548 61.7377 36.1592 61.1742 36.1592Z" fill="#5C5F6A"/>
<path d="M48.6856 39.0228C48.1188 39.0228 47.6316 38.9499 47.2239 38.8041C46.8163 38.6615 46.4765 38.4726 46.2048 38.2373C45.9363 38.0053 45.7225 37.7567 45.5634 37.4916L46.4981 36.8353C46.6041 36.9745 46.7384 37.1336 46.9008 37.3126C47.0632 37.4949 47.2853 37.6523 47.567 37.7849C47.852 37.9208 48.2249 37.9887 48.6856 37.9887C49.3021 37.9887 49.8108 37.8396 50.2119 37.5413C50.6129 37.243 50.8134 36.7756 50.8134 36.1393V34.5881H50.714C50.6278 34.7274 50.5052 34.8997 50.3461 35.1052C50.1903 35.3074 49.9649 35.488 49.67 35.6471C49.3783 35.8029 48.9839 35.8808 48.4867 35.8808C47.8702 35.8808 47.3167 35.7349 46.8262 35.4433C46.339 35.1516 45.9529 34.7274 45.6678 34.1705C45.3861 33.6137 45.2452 32.9376 45.2452 32.1421C45.2452 31.3599 45.3828 30.6788 45.6579 30.0988C45.933 29.5155 46.3158 29.0647 46.8063 28.7465C47.2969 28.425 47.8636 28.2643 48.5066 28.2643C49.0038 28.2643 49.3982 28.3471 49.6898 28.5129C49.9848 28.6753 50.2102 28.8609 50.366 29.0697C50.5251 29.2752 50.6477 29.4442 50.7339 29.5768H50.8532V28.3637H51.9867V36.2188C51.9867 36.8751 51.8376 37.4087 51.5393 37.8197C51.2443 38.234 50.8466 38.5372 50.3461 38.7295C49.8489 38.925 49.2954 39.0228 48.6856 39.0228ZM48.6458 34.8268C49.1165 34.8268 49.5142 34.7191 49.839 34.5036C50.1638 34.2882 50.4107 33.9783 50.5798 33.5739C50.7488 33.1696 50.8333 32.6857 50.8333 32.1222C50.8333 31.572 50.7504 31.0865 50.5847 30.6656C50.419 30.2446 50.1737 29.9148 49.8489 29.6762C49.5241 29.4376 49.1231 29.3183 48.6458 29.3183C48.1487 29.3183 47.7344 29.4442 47.4029 29.6961C47.0748 29.948 46.8279 30.2861 46.6621 30.7103C46.4997 31.1345 46.4185 31.6052 46.4185 32.1222C46.4185 32.6525 46.5014 33.1215 46.6671 33.5292C46.8361 33.9335 47.0847 34.2517 47.4129 34.4837C47.7443 34.7124 48.1553 34.8268 48.6458 34.8268Z" fill="#5C5F6A"/>
<path d="M38.587 31.4063V36.0001H37.4137V28.3637H38.5472V29.5569H38.6467C38.8256 29.1691 39.0974 28.8576 39.462 28.6222C39.8266 28.3836 40.2972 28.2643 40.8739 28.2643C41.391 28.2643 41.8434 28.3703 42.2312 28.5825C42.619 28.7913 42.9206 29.1094 43.136 29.537C43.3514 29.9612 43.4592 30.4982 43.4592 31.1478V36.0001H42.2859V31.2273C42.2859 30.6274 42.1301 30.1601 41.8185 29.8254C41.507 29.4873 41.0794 29.3183 40.5359 29.3183C40.1613 29.3183 39.8266 29.3995 39.5316 29.5619C39.2399 29.7243 39.0096 29.9613 38.8405 30.2728C38.6715 30.5844 38.587 30.9622 38.587 31.4063Z" fill="#5C5F6A"/>
<path d="M34.0914 36V28.3636H35.2647V36H34.0914ZM34.688 27.0909C34.4593 27.0909 34.2621 27.013 34.0964 26.8572C33.934 26.7015 33.8528 26.5142 33.8528 26.2955C33.8528 26.0767 33.934 25.8894 34.0964 25.7337C34.2621 25.5779 34.4593 25.5 34.688 25.5C34.9167 25.5 35.1123 25.5779 35.2747 25.7337C35.4404 25.8894 35.5232 26.0767 35.5232 26.2955C35.5232 26.5142 35.4404 26.7015 35.2747 26.8572C35.1123 27.013 34.9167 27.0909 34.688 27.0909Z" fill="#5C5F6A"/>
<path d="M26.9932 31.4063V36.0001H25.8199V25.8182H26.9932V29.5569H27.0927C27.2716 29.1625 27.5401 28.8493 27.8981 28.6172C28.2593 28.3819 28.7399 28.2643 29.3398 28.2643C29.8602 28.2643 30.3159 28.3687 30.707 28.5775C31.0981 28.783 31.4014 29.0995 31.6168 29.527C31.8356 29.9513 31.9449 30.4915 31.9449 31.1478V36.0001H30.7717V31.2273C30.7717 30.6208 30.6142 30.1518 30.2993 29.8204C29.9878 29.4856 29.5553 29.3182 29.0018 29.3182C28.6173 29.3182 28.2726 29.3994 27.9677 29.5618C27.6661 29.7243 27.4274 29.9612 27.2518 30.2728C27.0794 30.5843 26.9932 30.9622 26.9932 31.4063Z" fill="#5C5F6A"/>
<path d="M23.891 28.3637V29.358H19.9336V28.3637H23.891ZM21.087 26.5342H22.2603V33.8126C22.2603 34.144 22.3084 34.3926 22.4045 34.5583C22.5039 34.7207 22.6299 34.8301 22.7823 34.8865C22.9381 34.9395 23.1022 34.966 23.2745 34.966C23.4038 34.966 23.5098 34.9594 23.5927 34.9461C23.6755 34.9295 23.7418 34.9163 23.7915 34.9063L24.0302 35.9603C23.9506 35.9901 23.8396 36.02 23.6971 36.0498C23.5546 36.0829 23.3739 36.0995 23.1552 36.0995C22.8237 36.0995 22.4989 36.0283 22.1808 35.8857C21.8659 35.7432 21.604 35.5261 21.3952 35.2345C21.1897 34.9428 21.087 34.5749 21.087 34.1308V26.5342Z" fill="#5C5F6A"/>
<path d="M15.3187 36.1592C14.6294 36.1592 14.0245 35.9951 13.5041 35.667C12.9871 35.3389 12.5827 34.8798 12.291 34.2898C12.0027 33.6999 11.8585 33.0105 11.8585 32.2217C11.8585 31.4262 12.0027 30.7318 12.291 30.1386C12.5827 29.5453 12.9871 29.0846 13.5041 28.7565C14.0245 28.4283 14.6294 28.2643 15.3187 28.2643C16.0081 28.2643 16.6114 28.4283 17.1284 28.7565C17.6488 29.0846 18.0531 29.5453 18.3415 30.1386C18.6331 30.7318 18.779 31.4262 18.779 32.2217C18.779 33.0105 18.6331 33.6999 18.3415 34.2898C18.0531 34.8798 17.6488 35.3389 17.1284 35.667C16.6114 35.9951 16.0081 36.1592 15.3187 36.1592ZM15.3187 35.1052C15.8424 35.1052 16.2733 34.971 16.6114 34.7025C16.9494 34.434 17.1997 34.081 17.3621 33.6435C17.5245 33.206 17.6057 32.7321 17.6057 32.2217C17.6057 31.7113 17.5245 31.2356 17.3621 30.7948C17.1997 30.354 16.9494 29.9977 16.6114 29.7259C16.2733 29.4541 15.8424 29.3183 15.3187 29.3183C14.7951 29.3183 14.3642 29.4541 14.0261 29.7259C13.6881 29.9977 13.4378 30.354 13.2754 30.7948C13.113 31.2356 13.0318 31.7113 13.0318 32.2217C13.0318 32.7321 13.113 33.206 13.2754 33.6435C13.4378 34.081 13.6881 34.434 14.0261 34.7025C14.3642 34.971 14.7951 35.1052 15.3187 35.1052Z" fill="#5C5F6A"/>
<path d="M10.0675 25.8182V36.0001H8.89417V25.8182H10.0675Z" fill="#5C5F6A"/>
<path d="M4.17617 36.1592C3.46026 36.1592 2.84378 35.9901 2.32674 35.6521C1.80969 35.314 1.41197 34.8483 1.13356 34.255C0.855147 33.6618 0.715942 32.984 0.715942 32.2217C0.715942 31.4461 0.858461 30.7617 1.1435 30.1684C1.43185 29.5718 1.83289 29.1061 2.34662 28.7714C2.86367 28.4333 3.46689 28.2643 4.15628 28.2643C4.69322 28.2643 5.17712 28.3637 5.60799 28.5626C6.03886 28.7614 6.39184 29.0398 6.66694 29.3978C6.94203 29.7558 7.11272 30.1734 7.17901 30.6506H6.00572C5.91623 30.3026 5.71736 29.9944 5.40912 29.7259C5.1042 29.4541 4.69322 29.3183 4.17617 29.3183C3.71878 29.3183 3.31774 29.4376 2.97304 29.6762C2.63166 29.9115 2.36485 30.2446 2.17262 30.6755C1.9837 31.1031 1.88924 31.6052 1.88924 32.1819C1.88924 32.7719 1.98204 33.2856 2.16765 33.7231C2.35657 34.1606 2.62172 34.5003 2.9631 34.7423C3.3078 34.9842 3.71215 35.1052 4.17617 35.1052C4.48109 35.1052 4.75785 35.0522 5.00643 34.9461C5.255 34.84 5.46547 34.6876 5.63782 34.4887C5.81017 34.2898 5.9328 34.0512 6.00572 33.7728H7.17901C7.11272 34.2236 6.94866 34.6296 6.68682 34.9908C6.4283 35.3488 6.08526 35.6338 5.6577 35.846C5.23346 36.0548 4.73962 36.1592 4.17617 36.1592Z" fill="#5C5F6A"/>
<path d="M408.67 3.36367V4.35799H404.553V3.36367H408.67ZM405.786 11V2.30969C405.786 1.87219 405.889 1.50761 406.094 1.21594C406.3 0.924275 406.567 0.705526 406.895 0.559692C407.223 0.413859 407.569 0.340942 407.934 0.340942C408.222 0.340942 408.458 0.364143 408.64 0.410545C408.822 0.456946 408.958 0.500033 409.048 0.539806L408.709 1.55401C408.65 1.53412 408.567 1.50927 408.461 1.47944C408.358 1.44961 408.222 1.43469 408.053 1.43469C407.665 1.43469 407.385 1.53247 407.213 1.72802C407.044 1.92357 406.959 2.21026 406.959 2.5881V11H405.786Z" fill="#5C5F6A"/>
<path d="M400.018 11.1592C399.329 11.1592 398.724 10.9951 398.203 10.667C397.686 10.3389 397.282 9.87981 396.99 9.28985C396.702 8.69989 396.558 8.01049 396.558 7.22167C396.558 6.42621 396.702 5.73185 396.99 5.13857C397.282 4.5453 397.686 4.08459 398.203 3.75647C398.724 3.42834 399.329 3.26428 400.018 3.26428C400.707 3.26428 401.311 3.42834 401.828 3.75647C402.348 4.08459 402.752 4.5453 403.041 5.13857C403.332 5.73185 403.478 6.42621 403.478 7.22167C403.478 8.01049 403.332 8.69989 403.041 9.28985C402.752 9.87981 402.348 10.3389 401.828 10.667C401.311 10.9951 400.707 11.1592 400.018 11.1592ZM400.018 10.1052C400.542 10.1052 400.973 9.97096 401.311 9.70249C401.649 9.43403 401.899 9.08104 402.061 8.64354C402.224 8.20604 402.305 7.73208 402.305 7.22167C402.305 6.71125 402.224 6.23564 402.061 5.79482C401.899 5.35401 401.649 4.99771 401.311 4.72593C400.973 4.45415 400.542 4.31826 400.018 4.31826C399.494 4.31826 399.063 4.45415 398.725 4.72593C398.387 4.99771 398.137 5.35401 397.975 5.79482C397.812 6.23564 397.731 6.71125 397.731 7.22167C397.731 7.73208 397.812 8.20604 397.975 8.64354C398.137 9.08104 398.387 9.43403 398.725 9.70249C399.063 9.97096 399.494 10.1052 400.018 10.1052Z" fill="#5C5F6A"/>
<path d="M385.962 6.40633V11.0001H384.789V3.36371H385.922V4.5569H386.022C386.201 4.16911 386.472 3.85756 386.837 3.62224C387.202 3.3836 387.672 3.26428 388.249 3.26428C388.766 3.26428 389.218 3.37034 389.606 3.58246C389.994 3.79127 390.296 4.10945 390.511 4.53701C390.726 4.96125 390.834 5.49818 390.834 6.1478V11.0001H389.661V6.22735C389.661 5.62744 389.505 5.16012 389.194 4.82536C388.882 4.48729 388.454 4.31826 387.911 4.31826C387.536 4.31826 387.202 4.39946 386.907 4.56187C386.615 4.72427 386.385 4.96125 386.216 5.2728C386.047 5.58436 385.962 5.9622 385.962 6.40633Z" fill="#5C5F6A"/>
<path d="M379.538 11.1592C378.848 11.1592 378.243 10.9951 377.723 10.667C377.206 10.3389 376.801 9.87981 376.51 9.28985C376.221 8.69989 376.077 8.01049 376.077 7.22167C376.077 6.42621 376.221 5.73185 376.51 5.13857C376.801 4.5453 377.206 4.08459 377.723 3.75647C378.243 3.42834 378.848 3.26428 379.538 3.26428C380.227 3.26428 380.83 3.42834 381.347 3.75647C381.868 4.08459 382.272 4.5453 382.56 5.13857C382.852 5.73185 382.998 6.42621 382.998 7.22167C382.998 8.01049 382.852 8.69989 382.56 9.28985C382.272 9.87981 381.868 10.3389 381.347 10.667C380.83 10.9951 380.227 11.1592 379.538 11.1592ZM379.538 10.1052C380.061 10.1052 380.492 9.97096 380.83 9.70249C381.168 9.43403 381.418 9.08104 381.581 8.64354C381.743 8.20604 381.824 7.73208 381.824 7.22167C381.824 6.71125 381.743 6.23564 381.581 5.79482C381.418 5.35401 381.168 4.99771 380.83 4.72593C380.492 4.45415 380.061 4.31826 379.538 4.31826C379.014 4.31826 378.583 4.45415 378.245 4.72593C377.907 4.99771 377.657 5.35401 377.494 5.79482C377.332 6.23564 377.251 6.71125 377.251 7.22167C377.251 7.73208 377.332 8.20604 377.494 8.64354C377.657 9.08104 377.907 9.43403 378.245 9.70249C378.583 9.97096 379.014 10.1052 379.538 10.1052Z" fill="#5C5F6A"/>
<path d="M373.113 11V3.36364H374.286V11H373.113ZM373.709 2.09091C373.481 2.09091 373.284 2.01302 373.118 1.85724C372.955 1.70147 372.874 1.5142 372.874 1.29545C372.874 1.0767 372.955 0.889441 373.118 0.733665C373.284 0.577888 373.481 0.5 373.709 0.5C373.938 0.5 374.134 0.577888 374.296 0.733665C374.462 0.889441 374.545 1.0767 374.545 1.29545C374.545 1.5142 374.462 1.70147 374.296 1.85724C374.134 2.01302 373.938 2.09091 373.709 2.09091Z" fill="#5C5F6A"/>
<path d="M371.348 3.36372V4.35804H367.391V3.36372H371.348ZM368.544 1.53418H369.717V8.81259C369.717 9.14403 369.765 9.39261 369.862 9.55833C369.961 9.72073 370.087 9.83011 370.239 9.88645C370.395 9.93948 370.559 9.966 370.732 9.966C370.861 9.966 370.967 9.95937 371.05 9.94611C371.133 9.92954 371.199 9.91628 371.249 9.90634L371.487 10.9603C371.408 10.9901 371.297 11.02 371.154 11.0498C371.012 11.0829 370.831 11.0995 370.612 11.0995C370.281 11.0995 369.956 11.0283 369.638 10.8857C369.323 10.7432 369.061 10.5261 368.852 10.2345C368.647 9.9428 368.544 9.5749 368.544 9.13077V1.53418Z" fill="#5C5F6A"/>
<path d="M363.309 11.1592C362.593 11.1592 361.977 10.9901 361.46 10.6521C360.942 10.314 360.545 9.84833 360.266 9.25505C359.988 8.66177 359.849 7.98398 359.849 7.22167C359.849 6.4461 359.991 5.76168 360.276 5.1684C360.565 4.57181 360.966 4.10614 361.479 3.77138C361.996 3.43332 362.6 3.26428 363.289 3.26428C363.826 3.26428 364.31 3.36371 364.741 3.56258C365.172 3.76144 365.525 4.03985 365.8 4.3978C366.075 4.75576 366.246 5.17337 366.312 5.65065H365.139C365.049 5.30263 364.85 4.9944 364.542 4.72593C364.237 4.45415 363.826 4.31826 363.309 4.31826C362.852 4.31826 362.451 4.43758 362.106 4.67621C361.764 4.91154 361.498 5.24463 361.305 5.6755C361.116 6.10306 361.022 6.60519 361.022 7.1819C361.022 7.77186 361.115 8.28559 361.3 8.72309C361.489 9.16059 361.755 9.50031 362.096 9.74226C362.441 9.98422 362.845 10.1052 363.309 10.1052C363.614 10.1052 363.891 10.0522 364.139 9.9461C364.388 9.84004 364.598 9.68758 364.771 9.48871C364.943 9.28985 365.066 9.05121 365.139 8.7728H366.312C366.246 9.22356 366.081 9.62957 365.82 9.99084C365.561 10.3488 365.218 10.6338 364.791 10.846C364.366 11.0548 363.872 11.1592 363.309 11.1592Z" fill="#5C5F6A"/>
<path d="M355.26 11.1592C354.524 11.1592 353.889 10.9968 353.356 10.672C352.826 10.3438 352.416 9.88644 352.128 9.29979C351.843 8.70983 351.7 8.02375 351.7 7.24155C351.7 6.45936 351.843 5.76996 352.128 5.17337C352.416 4.57347 352.817 4.10614 353.331 3.77138C353.848 3.43332 354.451 3.26428 355.141 3.26428C355.538 3.26428 355.931 3.33057 356.319 3.46315C356.707 3.59572 357.06 3.81116 357.378 4.10945C357.696 4.40443 357.95 4.79553 358.139 5.28275C358.327 5.76996 358.422 6.36987 358.422 7.08246V7.57962H352.536V6.56542H357.229C357.229 6.13455 357.143 5.75008 356.97 5.41201C356.801 5.07394 356.559 4.80713 356.244 4.61158C355.933 4.41603 355.565 4.31826 355.141 4.31826C354.673 4.31826 354.269 4.43426 353.928 4.66627C353.59 4.89496 353.329 5.19326 353.147 5.56116C352.965 5.92905 352.874 6.32347 352.874 6.7444V7.42053C352.874 7.99724 352.973 8.48611 353.172 8.88715C353.374 9.28488 353.654 9.58815 354.012 9.79695C354.37 10.0024 354.786 10.1052 355.26 10.1052C355.568 10.1052 355.847 10.0621 356.095 9.97593C356.347 9.88644 356.564 9.75387 356.746 9.5782C356.929 9.39922 357.07 9.17716 357.169 8.91201L358.303 9.23019C358.183 9.61466 357.983 9.95273 357.701 10.2444C357.419 10.5327 357.071 10.7581 356.657 10.9205C356.243 11.0796 355.777 11.1592 355.26 11.1592Z" fill="#5C5F6A"/>
<path d="M349.909 0.818237V11.0001H348.736V0.818237H349.909Z" fill="#5C5F6A"/>
<path d="M346.587 0.818237V11.0001H345.414V0.818237H346.587Z" fill="#5C5F6A"/>
<path d="M340.163 11.1592C339.473 11.1592 338.868 10.9951 338.348 10.667C337.831 10.3389 337.426 9.87981 337.135 9.28985C336.846 8.69989 336.702 8.01049 336.702 7.22167C336.702 6.42621 336.846 5.73185 337.135 5.13857C337.426 4.5453 337.831 4.08459 338.348 3.75647C338.868 3.42834 339.473 3.26428 340.163 3.26428C340.852 3.26428 341.455 3.42834 341.972 3.75647C342.493 4.08459 342.897 4.5453 343.185 5.13857C343.477 5.73185 343.623 6.42621 343.623 7.22167C343.623 8.01049 343.477 8.69989 343.185 9.28985C342.897 9.87981 342.493 10.3389 341.972 10.667C341.455 10.9951 340.852 11.1592 340.163 11.1592ZM340.163 10.1052C340.686 10.1052 341.117 9.97096 341.455 9.70249C341.793 9.43403 342.043 9.08104 342.206 8.64354C342.368 8.20604 342.449 7.73208 342.449 7.22167C342.449 6.71125 342.368 6.23564 342.206 5.79482C342.043 5.35401 341.793 4.99771 341.455 4.72593C341.117 4.45415 340.686 4.31826 340.163 4.31826C339.639 4.31826 339.208 4.45415 338.87 4.72593C338.532 4.99771 338.282 5.35401 338.119 5.79482C337.957 6.23564 337.876 6.71125 337.876 7.22167C337.876 7.73208 337.957 8.20604 338.119 8.64354C338.282 9.08104 338.532 9.43403 338.87 9.70249C339.208 9.97096 339.639 10.1052 340.163 10.1052Z" fill="#5C5F6A"/>
<path d="M332.342 11.1592C331.626 11.1592 331.01 10.9901 330.493 10.6521C329.976 10.314 329.578 9.84833 329.3 9.25505C329.021 8.66177 328.882 7.98398 328.882 7.22167C328.882 6.4461 329.024 5.76168 329.31 5.1684C329.598 4.57181 329.999 4.10614 330.513 3.77138C331.03 3.43332 331.633 3.26428 332.322 3.26428C332.859 3.26428 333.343 3.36371 333.774 3.56258C334.205 3.76144 334.558 4.03985 334.833 4.3978C335.108 4.75576 335.279 5.17337 335.345 5.65065H334.172C334.082 5.30263 333.883 4.9944 333.575 4.72593C333.27 4.45415 332.859 4.31826 332.342 4.31826C331.885 4.31826 331.484 4.43758 331.139 4.67621C330.798 4.91154 330.531 5.24463 330.339 5.6755C330.15 6.10306 330.055 6.60519 330.055 7.1819C330.055 7.77186 330.148 8.28559 330.334 8.72309C330.523 9.16059 330.788 9.50031 331.129 9.74226C331.474 9.98422 331.878 10.1052 332.342 10.1052C332.647 10.1052 332.924 10.0522 333.172 9.9461C333.421 9.84004 333.631 9.68758 333.804 9.48871C333.976 9.28985 334.099 9.05121 334.172 8.7728H335.345C335.279 9.22356 335.115 9.62957 334.853 9.99084C334.594 10.3488 334.251 10.6338 333.824 10.846C333.399 11.0548 332.906 11.1592 332.342 11.1592Z" fill="#5C5F6A"/>
<path d="M320.356 11.1592C319.62 11.1592 318.985 10.9968 318.452 10.672C317.921 10.3438 317.512 9.88644 317.224 9.29979C316.939 8.70983 316.796 8.02375 316.796 7.24155C316.796 6.45936 316.939 5.76996 317.224 5.17337C317.512 4.57347 317.913 4.10614 318.427 3.77138C318.944 3.43332 319.547 3.26428 320.236 3.26428C320.634 3.26428 321.027 3.33057 321.415 3.46315C321.802 3.59572 322.155 3.81116 322.474 4.10945C322.792 4.40443 323.045 4.79553 323.234 5.28275C323.423 5.76996 323.518 6.36987 323.518 7.08246V7.57962H317.631V6.56542H322.324C322.324 6.13455 322.238 5.75008 322.066 5.41201C321.897 5.07394 321.655 4.80713 321.34 4.61158C321.029 4.41603 320.661 4.31826 320.236 4.31826C319.769 4.31826 319.365 4.43426 319.023 4.66627C318.685 4.89496 318.425 5.19326 318.243 5.56116C318.06 5.92905 317.969 6.32347 317.969 6.7444V7.42053C317.969 7.99724 318.069 8.48611 318.268 8.88715C318.47 9.28488 318.75 9.58815 319.108 9.79695C319.466 10.0024 319.882 10.1052 320.356 10.1052C320.664 10.1052 320.942 10.0621 321.191 9.97593C321.443 9.88644 321.66 9.75387 321.842 9.5782C322.024 9.39922 322.165 9.17716 322.265 8.91201L323.398 9.23019C323.279 9.61466 323.078 9.95273 322.797 10.2444C322.515 10.5327 322.167 10.7581 321.753 10.9205C321.338 11.0796 320.873 11.1592 320.356 11.1592Z" fill="#5C5F6A"/>
<path d="M315.249 5.07394L314.195 5.37224C314.128 5.19657 314.031 5.02588 313.901 4.86016C313.775 4.69113 313.603 4.55192 313.384 4.44255C313.166 4.33317 312.885 4.27849 312.544 4.27849C312.077 4.27849 311.687 4.3862 311.376 4.60164C311.067 4.81376 310.913 5.08388 310.913 5.41201C310.913 5.70368 311.019 5.93403 311.232 6.10306C311.444 6.27209 311.775 6.41296 312.226 6.52565L313.359 6.80405C314.042 6.96977 314.551 7.22333 314.886 7.56471C315.22 7.90278 315.388 8.33862 315.388 8.87224C315.388 9.30974 315.262 9.70083 315.01 10.0455C314.761 10.3902 314.413 10.662 313.966 10.8609C313.518 11.0597 312.998 11.1592 312.405 11.1592C311.626 11.1592 310.981 10.9901 310.471 10.6521C309.961 10.314 309.637 9.82015 309.501 9.17053L310.615 8.89212C310.721 9.30311 310.922 9.61135 311.217 9.81684C311.515 10.0223 311.904 10.1251 312.385 10.1251C312.932 10.1251 313.366 10.0091 313.688 9.77707C314.012 9.54174 314.175 9.26002 314.175 8.9319C314.175 8.66674 314.082 8.44468 313.896 8.2657C313.711 8.08341 313.426 7.94752 313.041 7.85803L311.768 7.55974C311.069 7.39402 310.555 7.13715 310.227 6.78914C309.902 6.43781 309.74 5.99866 309.74 5.47167C309.74 5.0408 309.861 4.65964 310.103 4.3282C310.348 3.99676 310.681 3.73658 311.102 3.54766C311.527 3.35874 312.007 3.26428 312.544 3.26428C313.3 3.26428 313.893 3.43 314.324 3.76144C314.758 4.09288 315.066 4.53038 315.249 5.07394Z" fill="#5C5F6A"/>
<path d="M304.63 11.0001V3.3637H305.764V4.51711H305.844C305.983 4.13927 306.235 3.83269 306.599 3.59737C306.964 3.36205 307.375 3.24438 307.832 3.24438C307.918 3.24438 308.026 3.24604 308.155 3.24936C308.285 3.25267 308.382 3.25764 308.449 3.26427V4.45745C308.409 4.44751 308.318 4.43259 308.175 4.41271C308.036 4.38951 307.889 4.37791 307.733 4.37791C307.362 4.37791 307.03 4.4558 306.738 4.61157C306.45 4.76403 306.221 4.97616 306.052 5.24794C305.887 5.5164 305.804 5.82298 305.804 6.16768V11.0001H304.63Z" fill="#5C5F6A"/>
<path d="M299.684 11.1592C298.948 11.1592 298.313 10.9968 297.78 10.672C297.249 10.3438 296.84 9.88644 296.552 9.29979C296.267 8.70983 296.124 8.02375 296.124 7.24155C296.124 6.45936 296.267 5.76996 296.552 5.17337C296.84 4.57347 297.241 4.10614 297.755 3.77138C298.272 3.43332 298.875 3.26428 299.564 3.26428C299.962 3.26428 300.355 3.33057 300.743 3.46315C301.131 3.59572 301.484 3.81116 301.802 4.10945C302.12 4.40443 302.373 4.79553 302.562 5.28275C302.751 5.76996 302.846 6.36987 302.846 7.08246V7.57962H296.959V6.56542H301.653C301.653 6.13455 301.566 5.75008 301.394 5.41201C301.225 5.07394 300.983 4.80713 300.668 4.61158C300.357 4.41603 299.989 4.31826 299.564 4.31826C299.097 4.31826 298.693 4.43426 298.351 4.66627C298.013 4.89496 297.753 5.19326 297.571 5.56116C297.389 5.92905 297.297 6.32347 297.297 6.7444V7.42053C297.297 7.99724 297.397 8.48611 297.596 8.88715C297.798 9.28488 298.078 9.58815 298.436 9.79695C298.794 10.0024 299.21 10.1052 299.684 10.1052C299.992 10.1052 300.27 10.0621 300.519 9.97593C300.771 9.88644 300.988 9.75387 301.17 9.5782C301.353 9.39922 301.493 9.17716 301.593 8.91201L302.726 9.23019C302.607 9.61466 302.407 9.95273 302.125 10.2444C301.843 10.5327 301.495 10.7581 301.081 10.9205C300.667 11.0796 300.201 11.1592 299.684 11.1592Z" fill="#5C5F6A"/>
<path d="M295.207 3.36365L292.383 11H291.19L288.366 3.36365H289.639L291.747 9.44888H291.826L293.934 3.36365H295.207Z" fill="#5C5F6A"/>
<path d="M285.64 11V3.36364H286.814V11H285.64ZM286.237 2.09091C286.008 2.09091 285.811 2.01302 285.645 1.85724C285.483 1.70147 285.402 1.5142 285.402 1.29545C285.402 1.0767 285.483 0.889441 285.645 0.733665C285.811 0.577888 286.008 0.5 286.237 0.5C286.466 0.5 286.661 0.577888 286.823 0.733665C286.989 0.889441 287.072 1.0767 287.072 1.29545C287.072 1.5142 286.989 1.70147 286.823 1.85724C286.661 2.01302 286.466 2.09091 286.237 2.09091Z" fill="#5C5F6A"/>
<path d="M279.829 11.1591C279.192 11.1591 278.63 10.9984 278.143 10.6769C277.656 10.3521 277.275 9.8947 277 9.30474C276.725 8.71147 276.587 8.01047 276.587 7.20176C276.587 6.39968 276.725 5.70365 277 5.11369C277.275 4.52373 277.658 4.068 278.148 3.7465C278.639 3.42501 279.205 3.26426 279.848 3.26426C280.346 3.26426 280.738 3.34712 281.027 3.51284C281.318 3.67525 281.54 3.86085 281.693 4.06966C281.849 4.27515 281.97 4.44418 282.056 4.57676H282.155V0.818237H283.329V11.0001H282.195V9.82676H282.056C281.97 9.96596 281.847 10.1416 281.688 10.3537C281.529 10.5626 281.302 10.7498 281.007 10.9155C280.712 11.0779 280.319 11.1591 279.829 11.1591ZM279.988 10.1052C280.458 10.1052 280.856 9.98254 281.181 9.73727C281.506 9.48869 281.753 9.14565 281.922 8.70815C282.091 8.26734 282.175 7.75858 282.175 7.18187C282.175 6.6118 282.092 6.11298 281.927 5.68543C281.761 5.25455 281.516 4.9198 281.191 4.68116C280.866 4.43921 280.465 4.31824 279.988 4.31824C279.49 4.31824 279.076 4.44584 278.745 4.70105C278.417 4.95294 278.17 5.29598 278.004 5.73017C277.842 6.16104 277.76 6.64494 277.76 7.18187C277.76 7.72543 277.843 8.21928 278.009 8.66341C278.178 9.10422 278.427 9.45555 278.755 9.71738C279.086 9.97591 279.497 10.1052 279.988 10.1052Z" fill="#5C5F6A"/>
<path d="M267.798 11.0001V3.3637H268.932V4.51711H269.012C269.151 4.13927 269.403 3.83269 269.767 3.59737C270.132 3.36205 270.543 3.24438 271 3.24438C271.086 3.24438 271.194 3.24604 271.323 3.24936C271.453 3.25267 271.55 3.25764 271.617 3.26427V4.45745C271.577 4.44751 271.486 4.43259 271.343 4.41271C271.204 4.38951 271.057 4.37791 270.901 4.37791C270.53 4.37791 270.198 4.4558 269.906 4.61157C269.618 4.76403 269.389 4.97616 269.22 5.24794C269.055 5.5164 268.972 5.82298 268.972 6.16768V11.0001H267.798Z" fill="#5C5F6A"/>
<path d="M264.476 7.87785V3.36365H265.65V11H264.476V9.7074H264.397C264.218 10.0952 263.939 10.425 263.561 10.6967C263.184 10.9652 262.706 11.0994 262.13 11.0994C261.652 11.0994 261.228 10.995 260.857 10.7862C260.486 10.5741 260.194 10.2559 259.982 9.83169C259.77 9.40413 259.664 8.86554 259.664 8.21592V3.36365H260.837V8.13637C260.837 8.69319 260.993 9.13732 261.304 9.46876C261.619 9.8002 262.02 9.96592 262.507 9.96592C262.799 9.96592 263.096 9.89135 263.397 9.7422C263.702 9.59305 263.958 9.36436 264.163 9.05612C264.372 8.74788 264.476 8.35513 264.476 7.87785Z" fill="#5C5F6A"/>
<path d="M254.412 11.1592C253.723 11.1592 253.118 10.9951 252.598 10.667C252.081 10.3389 251.676 9.87981 251.385 9.28985C251.096 8.69989 250.952 8.01049 250.952 7.22167C250.952 6.42621 251.096 5.73185 251.385 5.13857C251.676 4.5453 252.081 4.08459 252.598 3.75647C253.118 3.42834 253.723 3.26428 254.412 3.26428C255.102 3.26428 255.705 3.42834 256.222 3.75647C256.743 4.08459 257.147 4.5453 257.435 5.13857C257.727 5.73185 257.873 6.42621 257.873 7.22167C257.873 8.01049 257.727 8.69989 257.435 9.28985C257.147 9.87981 256.743 10.3389 256.222 10.667C255.705 10.9951 255.102 11.1592 254.412 11.1592ZM254.412 10.1052C254.936 10.1052 255.367 9.97096 255.705 9.70249C256.043 9.43403 256.293 9.08104 256.456 8.64354C256.618 8.20604 256.699 7.73208 256.699 7.22167C256.699 6.71125 256.618 6.23564 256.456 5.79482C256.293 5.35401 256.043 4.99771 255.705 4.72593C255.367 4.45415 254.936 4.31826 254.412 4.31826C253.889 4.31826 253.458 4.45415 253.12 4.72593C252.782 4.99771 252.532 5.35401 252.369 5.79482C252.207 6.23564 252.126 6.71125 252.126 7.22167C252.126 7.73208 252.207 8.20604 252.369 8.64354C252.532 9.08104 252.782 9.43403 253.12 9.70249C253.458 9.97096 253.889 10.1052 254.412 10.1052Z" fill="#5C5F6A"/>
<path d="M242.426 11.1592C241.69 11.1592 241.055 10.9968 240.522 10.672C239.992 10.3438 239.582 9.88644 239.294 9.29979C239.009 8.70983 238.866 8.02375 238.866 7.24155C238.866 6.45936 239.009 5.76996 239.294 5.17337C239.582 4.57347 239.983 4.10614 240.497 3.77138C241.014 3.43332 241.617 3.26428 242.307 3.26428C242.704 3.26428 243.097 3.33057 243.485 3.46315C243.873 3.59572 244.226 3.81116 244.544 4.10945C244.862 4.40443 245.116 4.79553 245.305 5.28275C245.493 5.76996 245.588 6.36987 245.588 7.08246V7.57962H239.702V6.56542H244.395C244.395 6.13455 244.309 5.75008 244.136 5.41201C243.967 5.07394 243.725 4.80713 243.41 4.61158C243.099 4.41603 242.731 4.31826 242.307 4.31826C241.839 4.31826 241.435 4.43426 241.094 4.66627C240.756 4.89496 240.495 5.19326 240.313 5.56116C240.131 5.92905 240.04 6.32347 240.04 6.7444V7.42053C240.04 7.99724 240.139 8.48611 240.338 8.88715C240.54 9.28488 240.82 9.58815 241.178 9.79695C241.536 10.0024 241.952 10.1052 242.426 10.1052C242.734 10.1052 243.013 10.0621 243.261 9.97593C243.513 9.88644 243.73 9.75387 243.912 9.5782C244.095 9.39922 244.236 9.17716 244.335 8.91201L245.469 9.23019C245.349 9.61466 245.149 9.95273 244.867 10.2444C244.585 10.5327 244.237 10.7581 243.823 10.9205C243.409 11.0796 242.943 11.1592 242.426 11.1592Z" fill="#5C5F6A"/>
<path d="M234.248 11.0001V3.3637H235.381V4.51711H235.461C235.6 4.13927 235.852 3.83269 236.216 3.59737C236.581 3.36205 236.992 3.24438 237.449 3.24438C237.536 3.24438 237.643 3.24604 237.773 3.24936C237.902 3.25267 238 3.25764 238.066 3.26427V4.45745C238.026 4.44751 237.935 4.43259 237.792 4.41271C237.653 4.38951 237.506 4.37791 237.35 4.37791C236.979 4.37791 236.647 4.4558 236.356 4.61157C236.067 4.76403 235.839 4.97616 235.67 5.24794C235.504 5.5164 235.421 5.82298 235.421 6.16768V11.0001H234.248Z" fill="#5C5F6A"/>
<path d="M228.996 11.1592C228.307 11.1592 227.702 10.9951 227.182 10.667C226.665 10.3389 226.26 9.87981 225.969 9.28985C225.68 8.69989 225.536 8.01049 225.536 7.22167C225.536 6.42621 225.68 5.73185 225.969 5.13857C226.26 4.5453 226.665 4.08459 227.182 3.75647C227.702 3.42834 228.307 3.26428 228.996 3.26428C229.686 3.26428 230.289 3.42834 230.806 3.75647C231.326 4.08459 231.731 4.5453 232.019 5.13857C232.311 5.73185 232.457 6.42621 232.457 7.22167C232.457 8.01049 232.311 8.69989 232.019 9.28985C231.731 9.87981 231.326 10.3389 230.806 10.667C230.289 10.9951 229.686 11.1592 228.996 11.1592ZM228.996 10.1052C229.52 10.1052 229.951 9.97096 230.289 9.70249C230.627 9.43403 230.877 9.08104 231.04 8.64354C231.202 8.20604 231.283 7.73208 231.283 7.22167C231.283 6.71125 231.202 6.23564 231.04 5.79482C230.877 5.35401 230.627 4.99771 230.289 4.72593C229.951 4.45415 229.52 4.31826 228.996 4.31826C228.473 4.31826 228.042 4.45415 227.704 4.72593C227.366 4.99771 227.116 5.35401 226.953 5.79482C226.791 6.23564 226.71 6.71125 226.71 7.22167C226.71 7.73208 226.791 8.20604 226.953 8.64354C227.116 9.08104 227.366 9.43403 227.704 9.70249C228.042 9.97096 228.473 10.1052 228.996 10.1052Z" fill="#5C5F6A"/>
<path d="M223.745 0.818237V11.0001H222.572V0.818237H223.745Z" fill="#5C5F6A"/>
<path d="M214.041 13.8637V3.36371H215.174V4.57678H215.313C215.4 4.44421 215.519 4.27517 215.671 4.06968C215.827 3.86087 216.049 3.67527 216.338 3.51286C216.629 3.34714 217.024 3.26428 217.521 3.26428C218.164 3.26428 218.731 3.42503 219.221 3.74653C219.712 4.06802 220.094 4.52375 220.369 5.11371C220.645 5.70368 220.782 6.3997 220.782 7.20178C220.782 8.01049 220.645 8.71149 220.369 9.30476C220.094 9.89473 219.713 10.3521 219.226 10.6769C218.739 10.9984 218.177 11.1592 217.541 11.1592C217.05 11.1592 216.657 11.078 216.362 10.9156C216.067 10.7498 215.84 10.5626 215.681 10.3538C215.522 10.1416 215.4 9.96599 215.313 9.82678H215.214V13.8637H214.041ZM215.194 7.1819C215.194 7.7586 215.279 8.26736 215.448 8.70817C215.617 9.14567 215.864 9.48871 216.188 9.73729C216.513 9.98256 216.911 10.1052 217.382 10.1052C217.872 10.1052 218.281 9.97593 218.61 9.71741C218.941 9.45557 219.19 9.10424 219.355 8.66343C219.524 8.2193 219.609 7.72546 219.609 7.1819C219.609 6.64496 219.526 6.16106 219.36 5.73019C219.198 5.296 218.951 4.95297 218.619 4.70107C218.291 4.44586 217.879 4.31826 217.382 4.31826C216.904 4.31826 216.503 4.43923 216.178 4.68118C215.854 4.91982 215.608 5.25458 215.443 5.68545C215.277 6.113 215.194 6.61182 215.194 7.1819Z" fill="#5C5F6A"/>
<path d="M207.355 3.36365L209.185 6.48581L211.014 3.36365H212.367L209.901 7.18183L212.367 11H211.014L209.185 8.03694L207.355 11H206.003L208.429 7.18183L206.003 3.36365H207.355Z" fill="#5C5F6A"/>
<path d="M201.738 11.1592C201.003 11.1592 200.368 10.9968 199.834 10.672C199.304 10.3438 198.895 9.88644 198.606 9.29979C198.321 8.70983 198.179 8.02375 198.179 7.24155C198.179 6.45936 198.321 5.76996 198.606 5.17337C198.895 4.57347 199.296 4.10614 199.81 3.77138C200.327 3.43332 200.93 3.26428 201.619 3.26428C202.017 3.26428 202.41 3.33057 202.797 3.46315C203.185 3.59572 203.538 3.81116 203.856 4.10945C204.175 4.40443 204.428 4.79553 204.617 5.28275C204.806 5.76996 204.9 6.36987 204.9 7.08246V7.57962H199.014V6.56542H203.707C203.707 6.13455 203.621 5.75008 203.449 5.41201C203.28 5.07394 203.038 4.80713 202.723 4.61158C202.411 4.41603 202.043 4.31826 201.619 4.31826C201.152 4.31826 200.747 4.43426 200.406 4.66627C200.068 4.89496 199.808 5.19326 199.626 5.56116C199.443 5.92905 199.352 6.32347 199.352 6.7444V7.42053C199.352 7.99724 199.452 8.48611 199.65 8.88715C199.853 9.28488 200.133 9.58815 200.491 9.79695C200.849 10.0024 201.265 10.1052 201.738 10.1052C202.047 10.1052 202.325 10.0621 202.574 9.97593C202.826 9.88644 203.043 9.75387 203.225 9.5782C203.407 9.39922 203.548 9.17716 203.648 8.91201L204.781 9.23019C204.662 9.61466 204.461 9.95273 204.18 10.2444C203.898 10.5327 203.55 10.7581 203.136 10.9205C202.721 11.0796 202.256 11.1592 201.738 11.1592Z" fill="#5C5F6A"/>
<path d="M188.787 11.1591C188.151 11.1591 187.589 10.9984 187.102 10.6769C186.615 10.3521 186.234 9.8947 185.959 9.30474C185.684 8.71147 185.546 8.01047 185.546 7.20176C185.546 6.39968 185.684 5.70365 185.959 5.11369C186.234 4.52373 186.617 4.068 187.107 3.7465C187.598 3.42501 188.164 3.26426 188.807 3.26426C189.305 3.26426 189.697 3.34712 189.986 3.51284C190.277 3.67525 190.499 3.86085 190.652 4.06966C190.808 4.27515 190.929 4.44418 191.015 4.57676H191.114V0.818237H192.287V11.0001H191.154V9.82676H191.015C190.929 9.96596 190.806 10.1416 190.647 10.3537C190.488 10.5626 190.261 10.7498 189.966 10.9155C189.671 11.0779 189.278 11.1591 188.787 11.1591ZM188.947 10.1052C189.417 10.1052 189.815 9.98254 190.14 9.73727C190.465 9.48869 190.712 9.14565 190.881 8.70815C191.05 8.26734 191.134 7.75858 191.134 7.18187C191.134 6.6118 191.051 6.11298 190.886 5.68543C190.72 5.25455 190.475 4.9198 190.15 4.68116C189.825 4.43921 189.424 4.31824 188.947 4.31824C188.449 4.31824 188.035 4.44584 187.704 4.70105C187.376 4.95294 187.129 5.29598 186.963 5.73017C186.801 6.16104 186.719 6.64494 186.719 7.18187C186.719 7.72543 186.802 8.21928 186.968 8.66341C187.137 9.10422 187.386 9.45555 187.714 9.71738C188.045 9.97591 188.456 10.1052 188.947 10.1052Z" fill="#5C5F6A"/>
<path d="M178.888 6.40633V11.0001H177.714V3.36371H178.848V4.5569H178.947C179.126 4.16911 179.398 3.85756 179.763 3.62224C180.127 3.3836 180.598 3.26428 181.175 3.26428C181.692 3.26428 182.144 3.37034 182.532 3.58246C182.92 3.79127 183.221 4.10945 183.437 4.53701C183.652 4.96125 183.76 5.49818 183.76 6.1478V11.0001H182.587V6.22735C182.587 5.62744 182.431 5.16012 182.119 4.82536C181.808 4.48729 181.38 4.31826 180.837 4.31826C180.462 4.31826 180.127 4.39946 179.832 4.56187C179.541 4.72427 179.31 4.96125 179.141 5.2728C178.972 5.58436 178.888 5.9622 178.888 6.40633Z" fill="#5C5F6A"/>
<path d="M172.073 11.1791C171.589 11.1791 171.15 11.0879 170.756 10.9056C170.361 10.72 170.048 10.4532 169.816 10.1052C169.584 9.75387 169.468 9.32962 169.468 8.83246C169.468 8.39496 169.554 8.04032 169.726 7.76854C169.899 7.49345 170.129 7.27801 170.417 7.12224C170.706 6.96646 171.024 6.85046 171.372 6.77423C171.723 6.69468 172.076 6.63171 172.431 6.5853C172.895 6.52565 173.271 6.4809 173.56 6.45107C173.851 6.41793 174.063 6.36324 174.196 6.28701C174.332 6.21078 174.4 6.0782 174.4 5.88928V5.84951C174.4 5.35898 174.265 4.97782 173.997 4.70604C173.732 4.43426 173.329 4.29837 172.789 4.29837C172.229 4.29837 171.79 4.42101 171.471 4.66627C171.153 4.91154 170.93 5.17337 170.8 5.45178L169.687 5.05405C169.886 4.59004 170.151 4.22877 170.482 3.97025C170.817 3.70841 171.181 3.52612 171.576 3.42337C171.974 3.31731 172.365 3.26428 172.749 3.26428C172.994 3.26428 173.276 3.29411 173.594 3.35377C173.916 3.41012 174.226 3.52778 174.524 3.70675C174.826 3.88573 175.076 4.15585 175.275 4.51712C175.474 4.87839 175.573 5.36229 175.573 5.96883V11.0001H174.4V9.96599H174.34C174.261 10.1317 174.128 10.309 173.942 10.4979C173.757 10.6869 173.51 10.8476 173.202 10.9802C172.893 11.1128 172.517 11.1791 172.073 11.1791ZM172.252 10.1251C172.716 10.1251 173.107 10.0339 173.425 9.85164C173.747 9.66935 173.989 9.43403 174.151 9.14567C174.317 8.85732 174.4 8.55405 174.4 8.23587V7.16201C174.35 7.22167 174.241 7.27636 174.072 7.32607C173.906 7.37247 173.714 7.4139 173.495 7.45036C173.279 7.48351 173.069 7.51334 172.863 7.53985C172.661 7.56305 172.497 7.58294 172.371 7.59951C172.066 7.63928 171.781 7.70391 171.516 7.7934C171.254 7.87957 171.042 8.01049 170.88 8.18616C170.721 8.3585 170.641 8.59383 170.641 8.89212C170.641 9.29979 170.792 9.60803 171.094 9.81684C171.399 10.0223 171.785 10.1251 172.252 10.1251Z" fill="#5C5F6A"/>
<path d="M160.942 11.1592C160.206 11.1592 159.571 10.9968 159.037 10.672C158.507 10.3438 158.098 9.88644 157.81 9.29979C157.524 8.70983 157.382 8.02375 157.382 7.24155C157.382 6.45936 157.524 5.76996 157.81 5.17337C158.098 4.57347 158.499 4.10614 159.013 3.77138C159.53 3.43332 160.133 3.26428 160.822 3.26428C161.22 3.26428 161.613 3.33057 162.001 3.46315C162.388 3.59572 162.741 3.81116 163.06 4.10945C163.378 4.40443 163.631 4.79553 163.82 5.28275C164.009 5.76996 164.104 6.36987 164.104 7.08246V7.57962H158.217V6.56542H162.91C162.91 6.13455 162.824 5.75008 162.652 5.41201C162.483 5.07394 162.241 4.80713 161.926 4.61158C161.614 4.41603 161.247 4.31826 160.822 4.31826C160.355 4.31826 159.951 4.43426 159.609 4.66627C159.271 4.89496 159.011 5.19326 158.829 5.56116C158.646 5.92905 158.555 6.32347 158.555 6.7444V7.42053C158.555 7.99724 158.655 8.48611 158.854 8.88715C159.056 9.28488 159.336 9.58815 159.694 9.79695C160.052 10.0024 160.468 10.1052 160.942 10.1052C161.25 10.1052 161.528 10.0621 161.777 9.97593C162.029 9.88644 162.246 9.75387 162.428 9.5782C162.61 9.39922 162.751 9.17716 162.851 8.91201L163.984 9.23019C163.865 9.61466 163.664 9.95273 163.383 10.2444C163.101 10.5327 162.753 10.7581 162.339 10.9205C161.924 11.0796 161.459 11.1592 160.942 11.1592Z" fill="#5C5F6A"/>
<path d="M155.591 0.818237V11.0001H154.418V0.818237H155.591Z" fill="#5C5F6A"/>
<path d="M147.38 13.8636C147.181 13.8636 147.004 13.8471 146.848 13.8139C146.693 13.7841 146.585 13.7543 146.525 13.7244L146.824 12.6904C147.109 12.7633 147.36 12.7898 147.579 12.7699C147.798 12.75 147.992 12.6522 148.161 12.4766C148.333 12.3042 148.491 12.0242 148.633 11.6364L148.852 11.0398L146.028 3.36365H147.301L149.409 9.44888H149.488L151.596 3.36365H152.869L149.628 12.1136C149.482 12.5081 149.301 12.8345 149.086 13.0931C148.87 13.3549 148.62 13.5488 148.335 13.6747C148.053 13.8007 147.735 13.8636 147.38 13.8636Z" fill="#5C5F6A"/>
<path d="M144.86 3.36372V4.35804H140.902V3.36372H144.86ZM142.056 1.53418H143.229V8.81259C143.229 9.14403 143.277 9.39261 143.373 9.55833C143.473 9.72073 143.599 9.83011 143.751 9.88645C143.907 9.93948 144.071 9.966 144.243 9.966C144.373 9.966 144.479 9.95937 144.561 9.94611C144.644 9.92954 144.711 9.91628 144.76 9.90634L144.999 10.9603C144.919 10.9901 144.808 11.02 144.666 11.0498C144.523 11.0829 144.343 11.0995 144.124 11.0995C143.792 11.0995 143.468 11.0283 143.15 10.8857C142.835 10.7432 142.573 10.5261 142.364 10.2345C142.159 9.9428 142.056 9.5749 142.056 9.13077V1.53418Z" fill="#5C5F6A"/>
<path d="M139.633 5.07394L138.579 5.37224C138.513 5.19657 138.415 5.02588 138.286 4.86016C138.16 4.69113 137.988 4.55192 137.769 4.44255C137.55 4.33317 137.27 4.27849 136.929 4.27849C136.462 4.27849 136.072 4.3862 135.761 4.60164C135.452 4.81376 135.298 5.08388 135.298 5.41201C135.298 5.70368 135.404 5.93403 135.616 6.10306C135.828 6.27209 136.16 6.41296 136.611 6.52565L137.744 6.80405C138.427 6.96977 138.936 7.22333 139.27 7.56471C139.605 7.90278 139.773 8.33862 139.773 8.87224C139.773 9.30974 139.647 9.70083 139.395 10.0455C139.146 10.3902 138.798 10.662 138.351 10.8609C137.903 11.0597 137.383 11.1592 136.79 11.1592C136.011 11.1592 135.366 10.9901 134.856 10.6521C134.345 10.314 134.022 9.82015 133.886 9.17053L135 8.89212C135.106 9.30311 135.306 9.61135 135.601 9.81684C135.9 10.0223 136.289 10.1251 136.77 10.1251C137.317 10.1251 137.751 10.0091 138.072 9.77707C138.397 9.54174 138.56 9.26002 138.56 8.9319C138.56 8.66674 138.467 8.44468 138.281 8.2657C138.096 8.08341 137.81 7.94752 137.426 7.85803L136.153 7.55974C135.454 7.39402 134.94 7.13715 134.612 6.78914C134.287 6.43781 134.125 5.99866 134.125 5.47167C134.125 5.0408 134.246 4.65964 134.488 4.3282C134.733 3.99676 135.066 3.73658 135.487 3.54766C135.911 3.35874 136.392 3.26428 136.929 3.26428C137.685 3.26428 138.278 3.43 138.709 3.76144C139.143 4.09288 139.451 4.53038 139.633 5.07394Z" fill="#5C5F6A"/>
<path d="M128.642 3.36367V4.35799H124.526V3.36367H128.642ZM125.759 11V2.30969C125.759 1.87219 125.862 1.50761 126.067 1.21594C126.273 0.924275 126.539 0.705526 126.868 0.559692C127.196 0.413859 127.542 0.340942 127.907 0.340942C128.195 0.340942 128.43 0.364143 128.613 0.410545C128.795 0.456946 128.931 0.500033 129.02 0.539806L128.682 1.55401C128.623 1.53412 128.54 1.50927 128.434 1.47944C128.331 1.44961 128.195 1.43469 128.026 1.43469C127.638 1.43469 127.358 1.53247 127.186 1.72802C127.017 1.92357 126.932 2.21026 126.932 2.5881V11H125.759Z" fill="#5C5F6A"/>
<path d="M119.991 11.1592C119.301 11.1592 118.696 10.9951 118.176 10.667C117.659 10.3389 117.255 9.87981 116.963 9.28985C116.675 8.69989 116.53 8.01049 116.53 7.22167C116.53 6.42621 116.675 5.73185 116.963 5.13857C117.255 4.5453 117.659 4.08459 118.176 3.75647C118.696 3.42834 119.301 3.26428 119.991 3.26428C120.68 3.26428 121.283 3.42834 121.8 3.75647C122.321 4.08459 122.725 4.5453 123.013 5.13857C123.305 5.73185 123.451 6.42621 123.451 7.22167C123.451 8.01049 123.305 8.69989 123.013 9.28985C122.725 9.87981 122.321 10.3389 121.8 10.667C121.283 10.9951 120.68 11.1592 119.991 11.1592ZM119.991 10.1052C120.514 10.1052 120.945 9.97096 121.283 9.70249C121.621 9.43403 121.872 9.08104 122.034 8.64354C122.196 8.20604 122.278 7.73208 122.278 7.22167C122.278 6.71125 122.196 6.23564 122.034 5.79482C121.872 5.35401 121.621 4.99771 121.283 4.72593C120.945 4.45415 120.514 4.31826 119.991 4.31826C119.467 4.31826 119.036 4.45415 118.698 4.72593C118.36 4.99771 118.11 5.35401 117.947 5.79482C117.785 6.23564 117.704 6.71125 117.704 7.22167C117.704 7.73208 117.785 8.20604 117.947 8.64354C118.11 9.08104 118.36 9.43403 118.698 9.70249C119.036 9.97096 119.467 10.1052 119.991 10.1052Z" fill="#5C5F6A"/>
<path d="M107.139 11.1591C106.503 11.1591 105.941 10.9984 105.454 10.6769C104.966 10.3521 104.585 9.8947 104.31 9.30474C104.035 8.71147 103.898 8.01047 103.898 7.20176C103.898 6.39968 104.035 5.70365 104.31 5.11369C104.585 4.52373 104.968 4.068 105.459 3.7465C105.949 3.42501 106.516 3.26426 107.159 3.26426C107.656 3.26426 108.049 3.34712 108.337 3.51284C108.629 3.67525 108.851 3.86085 109.003 4.06966C109.159 4.27515 109.28 4.44418 109.366 4.57676H109.466V0.818237H110.639V11.0001H109.506V9.82676H109.366C109.28 9.96596 109.158 10.1416 108.998 10.3537C108.839 10.5626 108.612 10.7498 108.317 10.9155C108.022 11.0779 107.63 11.1591 107.139 11.1591ZM107.298 10.1052C107.769 10.1052 108.167 9.98254 108.491 9.73727C108.816 9.48869 109.063 9.14565 109.232 8.70815C109.401 8.26734 109.486 7.75858 109.486 7.18187C109.486 6.6118 109.403 6.11298 109.237 5.68543C109.071 5.25455 108.826 4.9198 108.501 4.68116C108.176 4.43921 107.775 4.31824 107.298 4.31824C106.801 4.31824 106.387 4.44584 106.055 4.70105C105.727 4.95294 105.48 5.29598 105.314 5.73017C105.152 6.16104 105.071 6.64494 105.071 7.18187C105.071 7.72543 105.154 8.21928 105.319 8.66341C105.488 9.10422 105.737 9.45555 106.065 9.71738C106.397 9.97591 106.808 10.1052 107.298 10.1052Z" fill="#5C5F6A"/>
<path d="M102.107 0.818237V11.0001H100.933V0.818237H102.107Z" fill="#5C5F6A"/>
<path d="M95.7242 11.0001V3.3637H96.8578V4.51711H96.9373C97.0765 4.13927 97.3284 3.83269 97.693 3.59737C98.0576 3.36205 98.4686 3.24438 98.9259 3.24438C99.0121 3.24438 99.1198 3.24604 99.2491 3.24936C99.3784 3.25267 99.4761 3.25764 99.5424 3.26427V4.45745C99.5027 4.44751 99.4115 4.43259 99.269 4.41271C99.1298 4.38951 98.9823 4.37791 98.8265 4.37791C98.4553 4.37791 98.1239 4.4558 97.8322 4.61157C97.5438 4.76403 97.3152 4.97616 97.1461 5.24794C96.9804 5.5164 96.8975 5.82298 96.8975 6.16768V11.0001H95.7242Z" fill="#5C5F6A"/>
<path d="M90.473 11.1592C89.7837 11.1592 89.1788 10.9951 88.6584 10.667C88.1414 10.3389 87.737 9.87981 87.4453 9.28985C87.157 8.69989 87.0128 8.01049 87.0128 7.22167C87.0128 6.42621 87.157 5.73185 87.4453 5.13857C87.737 4.5453 88.1414 4.08459 88.6584 3.75647C89.1788 3.42834 89.7837 3.26428 90.473 3.26428C91.1624 3.26428 91.7657 3.42834 92.2827 3.75647C92.8031 4.08459 93.2074 4.5453 93.4958 5.13857C93.7874 5.73185 93.9333 6.42621 93.9333 7.22167C93.9333 8.01049 93.7874 8.69989 93.4958 9.28985C93.2074 9.87981 92.8031 10.3389 92.2827 10.667C91.7657 10.9951 91.1624 11.1592 90.473 11.1592ZM90.473 10.1052C90.9967 10.1052 91.4276 9.97096 91.7657 9.70249C92.1037 9.43403 92.354 9.08104 92.5164 8.64354C92.6788 8.20604 92.76 7.73208 92.76 7.22167C92.76 6.71125 92.6788 6.23564 92.5164 5.79482C92.354 5.35401 92.1037 4.99771 91.7657 4.72593C91.4276 4.45415 90.9967 4.31826 90.473 4.31826C89.9494 4.31826 89.5185 4.45415 89.1804 4.72593C88.8424 4.99771 88.5921 5.35401 88.4297 5.79482C88.2673 6.23564 88.1861 6.71125 88.1861 7.22167C88.1861 7.73208 88.2673 8.20604 88.4297 8.64354C88.5921 9.08104 88.8424 9.43403 89.1804 9.70249C89.5185 9.97096 89.9494 10.1052 90.473 10.1052Z" fill="#5C5F6A"/>
<path d="M77.9856 11L75.6589 3.36365H76.8919L78.5425 9.21024H78.622L80.2527 3.36365H81.5055L83.1163 9.19035H83.1959L84.8464 3.36365H86.0794L83.7527 11H82.5993L80.9288 5.13353H80.8095L79.1391 11H77.9856Z" fill="#5C5F6A"/>
<path d="M66.6765 11.1791C66.1926 11.1791 65.7535 11.0879 65.359 10.9056C64.9646 10.72 64.6514 10.4532 64.4194 10.1052C64.1874 9.75387 64.0714 9.32962 64.0714 8.83246C64.0714 8.39496 64.1576 8.04032 64.3299 7.76854C64.5023 7.49345 64.7326 7.27801 65.021 7.12224C65.3093 6.96646 65.6275 6.85046 65.9755 6.77423C66.3269 6.69468 66.6798 6.63171 67.0345 6.5853C67.4985 6.52565 67.8747 6.4809 68.163 6.45107C68.4547 6.41793 68.6668 6.36324 68.7994 6.28701C68.9353 6.21078 69.0032 6.0782 69.0032 5.88928V5.84951C69.0032 5.35898 68.869 4.97782 68.6005 4.70604C68.3354 4.43426 67.9327 4.29837 67.3924 4.29837C66.8323 4.29837 66.3931 4.42101 66.075 4.66627C65.7568 4.91154 65.5331 5.17337 65.4038 5.45178L64.2902 5.05405C64.489 4.59004 64.7542 4.22877 65.0856 3.97025C65.4204 3.70841 65.7849 3.52612 66.1794 3.42337C66.5771 3.31731 66.9682 3.26428 67.3527 3.26428C67.5979 3.26428 67.8796 3.29411 68.1978 3.35377C68.5193 3.41012 68.8292 3.52778 69.1275 3.70675C69.4291 3.88573 69.6794 4.15585 69.8782 4.51712C70.0771 4.87839 70.1765 5.36229 70.1765 5.96883V11.0001H69.0032V9.96599H68.9436C68.864 10.1317 68.7314 10.309 68.5458 10.4979C68.3602 10.6869 68.1133 10.8476 67.8051 10.9802C67.4968 11.1128 67.1207 11.1791 66.6765 11.1791ZM66.8555 10.1251C67.3195 10.1251 67.7106 10.0339 68.0288 9.85164C68.3503 9.66935 68.5922 9.43403 68.7546 9.14567C68.9204 8.85732 69.0032 8.55405 69.0032 8.23587V7.16201C68.9535 7.22167 68.8441 7.27636 68.6751 7.32607C68.5094 7.37247 68.3171 7.4139 68.0984 7.45036C67.883 7.48351 67.6725 7.51334 67.467 7.53985C67.2648 7.56305 67.1008 7.58294 66.9748 7.59951C66.6699 7.63928 66.3849 7.70391 66.1197 7.7934C65.8579 7.87957 65.6457 8.01049 65.4833 8.18616C65.3242 8.3585 65.2447 8.59383 65.2447 8.89212C65.2447 9.29979 65.3955 9.60803 65.6971 9.81684C66.002 10.0223 66.3882 10.1251 66.8555 10.1251Z" fill="#5C5F6A"/>
<path d="M55.2406 11.1592C54.5512 11.1592 53.9464 10.9951 53.426 10.667C52.9089 10.3389 52.5046 9.87981 52.2129 9.28985C51.9246 8.69989 51.7804 8.01049 51.7804 7.22167C51.7804 6.42621 51.9246 5.73185 52.2129 5.13857C52.5046 4.5453 52.9089 4.08459 53.426 3.75647C53.9464 3.42834 54.5512 3.26428 55.2406 3.26428C55.93 3.26428 56.5332 3.42834 57.0503 3.75647C57.5706 4.08459 57.975 4.5453 58.2634 5.13857C58.555 5.73185 58.7009 6.42621 58.7009 7.22167C58.7009 8.01049 58.555 8.69989 58.2634 9.28985C57.975 9.87981 57.5706 10.3389 57.0503 10.667C56.5332 10.9951 55.93 11.1592 55.2406 11.1592ZM55.2406 10.1052C55.7643 10.1052 56.1952 9.97096 56.5332 9.70249C56.8713 9.43403 57.1215 9.08104 57.2839 8.64354C57.4464 8.20604 57.5276 7.73208 57.5276 7.22167C57.5276 6.71125 57.4464 6.23564 57.2839 5.79482C57.1215 5.35401 56.8713 4.99771 56.5332 4.72593C56.1952 4.45415 55.7643 4.31826 55.2406 4.31826C54.7169 4.31826 54.2861 4.45415 53.948 4.72593C53.6099 4.99771 53.3597 5.35401 53.1973 5.79482C53.0349 6.23564 52.9537 6.71125 52.9537 7.22167C52.9537 7.73208 53.0349 8.20604 53.1973 8.64354C53.3597 9.08104 53.6099 9.43403 53.948 9.70249C54.2861 9.97096 54.7169 10.1052 55.2406 10.1052Z" fill="#5C5F6A"/>
<path d="M50.4554 3.36372V4.35804H46.498V3.36372H50.4554ZM47.6515 1.53418H48.8248V8.81259C48.8248 9.14403 48.8728 9.39261 48.9689 9.55833C49.0684 9.72073 49.1943 9.83011 49.3468 9.88645C49.5025 9.93948 49.6666 9.966 49.839 9.966C49.9682 9.966 50.0743 9.95937 50.1571 9.94611C50.24 9.92954 50.3063 9.91628 50.356 9.90634L50.5946 10.9603C50.5151 10.9901 50.4041 11.02 50.2615 11.0498C50.119 11.0829 49.9384 11.0995 49.7196 11.0995C49.3882 11.0995 49.0634 11.0283 48.7452 10.8857C48.4303 10.7432 48.1685 10.5261 47.9597 10.2345C47.7542 9.9428 47.6515 9.5749 47.6515 9.13077V1.53418Z" fill="#5C5F6A"/>
<path d="M40.1182 6.40633V11.0001H38.9449V3.36371H40.0785V4.5569H40.1779C40.3569 4.16911 40.6287 3.85756 40.9932 3.62224C41.3578 3.3836 41.8285 3.26428 42.4052 3.26428C42.9222 3.26428 43.3746 3.37034 43.7624 3.58246C44.1502 3.79127 44.4518 4.10945 44.6672 4.53701C44.8827 4.96125 44.9904 5.49818 44.9904 6.1478V11.0001H43.8171V6.22735C43.8171 5.62744 43.6613 5.16012 43.3498 4.82536C43.0382 4.48729 42.6107 4.31826 42.0671 4.31826C41.6926 4.31826 41.3578 4.39946 41.0628 4.56187C40.7712 4.72427 40.5408 4.96125 40.3718 5.2728C40.2028 5.58436 40.1182 5.9622 40.1182 6.40633Z" fill="#5C5F6A"/>
<path d="M35.6227 11V3.36364H36.796V11H35.6227ZM36.2193 2.09091C35.9906 2.09091 35.7934 2.01302 35.6276 1.85724C35.4652 1.70147 35.384 1.5142 35.384 1.29545C35.384 1.0767 35.4652 0.889441 35.6276 0.733665C35.7934 0.577888 35.9906 0.5 36.2193 0.5C36.448 0.5 36.6435 0.577888 36.8059 0.733665C36.9716 0.889441 37.0545 1.0767 37.0545 1.29545C37.0545 1.5142 36.9716 1.70147 36.8059 1.85724C36.6435 2.01302 36.448 2.09091 36.2193 2.09091Z" fill="#5C5F6A"/>
<path d="M23.1539 13.8637V3.36371H24.2875V4.57678H24.4267C24.5128 4.44421 24.6322 4.27517 24.7846 4.06968C24.9404 3.86087 25.1625 3.67527 25.4508 3.51286C25.7425 3.34714 26.1369 3.26428 26.634 3.26428C27.277 3.26428 27.8438 3.42503 28.3343 3.74653C28.8249 4.06802 29.2077 4.52375 29.4828 5.11371C29.7579 5.70368 29.8954 6.3997 29.8954 7.20178C29.8954 8.01049 29.7579 8.71149 29.4828 9.30476C29.2077 9.89473 28.8265 10.3521 28.3393 10.6769C27.8521 10.9984 27.2903 11.1592 26.6539 11.1592C26.1634 11.1592 25.7706 11.078 25.4757 10.9156C25.1807 10.7498 24.9536 10.5626 24.7946 10.3538C24.6355 10.1416 24.5128 9.96599 24.4267 9.82678H24.3272V13.8637H23.1539ZM24.3073 7.1819C24.3073 7.7586 24.3919 8.26736 24.5609 8.70817C24.7299 9.14567 24.9768 9.48871 25.3017 9.73729C25.6265 9.98256 26.0242 10.1052 26.4948 10.1052C26.9854 10.1052 27.3947 9.97593 27.7228 9.71741C28.0543 9.45557 28.3028 9.10424 28.4686 8.66343C28.6376 8.2193 28.7221 7.72546 28.7221 7.1819C28.7221 6.64496 28.6393 6.16106 28.4735 5.73019C28.3111 5.296 28.0642 4.95297 27.7328 4.70107C27.4046 4.44586 26.992 4.31826 26.4948 4.31826C26.0176 4.31826 25.6165 4.43923 25.2917 4.68118C24.9669 4.91982 24.7216 5.25458 24.5559 5.68545C24.3902 6.113 24.3073 6.61182 24.3073 7.1819Z" fill="#5C5F6A"/>
<path d="M18.2072 11.1592C17.4714 11.1592 16.8367 10.9968 16.3031 10.672C15.7728 10.3438 15.3635 9.88644 15.0751 9.29979C14.7901 8.70983 14.6476 8.02375 14.6476 7.24155C14.6476 6.45936 14.7901 5.76996 15.0751 5.17337C15.3635 4.57347 15.7645 4.10614 16.2783 3.77138C16.7953 3.43332 17.3985 3.26428 18.0879 3.26428C18.4857 3.26428 18.8784 3.33057 19.2662 3.46315C19.654 3.59572 20.007 3.81116 20.3251 4.10945C20.6433 4.40443 20.8969 4.79553 21.0858 5.28275C21.2747 5.76996 21.3692 6.36987 21.3692 7.08246V7.57962H15.4828V6.56542H20.176C20.176 6.13455 20.0898 5.75008 19.9175 5.41201C19.7484 5.07394 19.5065 4.80713 19.1916 4.61158C18.8801 4.41603 18.5122 4.31826 18.0879 4.31826C17.6206 4.31826 17.2162 4.43426 16.8749 4.66627C16.5368 4.89496 16.2766 5.19326 16.0943 5.56116C15.912 5.92905 15.8209 6.32347 15.8209 6.7444V7.42053C15.8209 7.99724 15.9203 8.48611 16.1192 8.88715C16.3214 9.28488 16.6014 9.58815 16.9594 9.79695C17.3173 10.0024 17.7333 10.1052 18.2072 10.1052C18.5155 10.1052 18.7939 10.0621 19.0425 9.97593C19.2944 9.88644 19.5115 9.75387 19.6937 9.5782C19.876 9.39922 20.0169 9.17716 20.1163 8.91201L21.2499 9.23019C21.1305 9.61466 20.93 9.95273 20.6483 10.2444C20.3666 10.5327 20.0186 10.7581 19.6043 10.9205C19.19 11.0796 18.7243 11.1592 18.2072 11.1592Z" fill="#5C5F6A"/>
<path d="M13.3226 3.36372V4.35804H9.36523V3.36372H13.3226ZM10.5186 1.53418H11.6919V8.81259C11.6919 9.14403 11.74 9.39261 11.8361 9.55833C11.9355 9.72073 12.0615 9.83011 12.214 9.88645C12.3697 9.93948 12.5338 9.966 12.7061 9.966C12.8354 9.966 12.9415 9.95937 13.0243 9.94611C13.1072 9.92954 13.1735 9.91628 13.2232 9.90634L13.4618 10.9603C13.3823 10.9901 13.2712 11.02 13.1287 11.0498C12.9862 11.0829 12.8056 11.0995 12.5868 11.0995C12.2554 11.0995 11.9306 11.0283 11.6124 10.8857C11.2975 10.7432 11.0357 10.5261 10.8269 10.2345C10.6214 9.9428 10.5186 9.5749 10.5186 9.13077V1.53418Z" fill="#5C5F6A"/>
<path d="M6.80121 3.36361C6.74156 2.85983 6.4996 2.46873 6.07536 2.19032C5.65112 1.91191 5.13076 1.77271 4.51428 1.77271C4.06352 1.77271 3.66911 1.84562 3.33104 1.99146C2.99629 2.13729 2.73445 2.33781 2.54553 2.59302C2.35993 2.84823 2.26712 3.13824 2.26712 3.46305C2.26712 3.73483 2.33175 3.96849 2.46102 4.16404C2.59359 4.35628 2.76262 4.51702 2.96812 4.64629C3.17361 4.77223 3.38905 4.87663 3.61442 4.95949C3.8398 5.03904 4.04695 5.10367 4.23587 5.15339L5.26996 5.4318C5.53512 5.5014 5.8301 5.59752 6.15491 5.72015C6.48303 5.84278 6.79624 6.01016 7.09454 6.22228C7.39615 6.43109 7.64473 6.69955 7.84028 7.02768C8.03583 7.3558 8.1336 7.7585 8.1336 8.23577C8.1336 8.78596 7.98942 9.28312 7.70107 9.72725C7.41603 10.1714 6.99842 10.5244 6.44823 10.7862C5.90136 11.048 5.23682 11.179 4.45462 11.179C3.72546 11.179 3.09406 11.0613 2.56045 10.826C2.03014 10.5907 1.61253 10.2625 1.30761 9.8416C1.006 9.42067 0.835305 8.9318 0.795532 8.37498H2.06826C2.1014 8.75945 2.23066 9.07763 2.45604 9.32952C2.68474 9.5781 2.97309 9.76371 3.3211 9.88634C3.67243 10.0057 4.05027 10.0653 4.45462 10.0653C4.92527 10.0653 5.34785 9.98909 5.72238 9.83663C6.09691 9.68085 6.39354 9.46541 6.61229 9.19032C6.83104 8.91191 6.94042 8.5871 6.94042 8.21589C6.94042 7.87782 6.84596 7.60272 6.65704 7.3906C6.46812 7.17848 6.21954 7.00613 5.9113 6.87356C5.60306 6.74098 5.26996 6.62498 4.91201 6.52555L3.65917 6.16759C2.86371 5.9389 2.23398 5.61243 1.76996 5.18819C1.30595 4.76395 1.07394 4.20878 1.07394 3.52271C1.07394 2.95263 1.22806 2.45547 1.5363 2.03123C1.84785 1.60367 2.26547 1.27223 2.78914 1.03691C3.31613 0.798274 3.90443 0.678955 4.55406 0.678955C5.21031 0.678955 5.79364 0.796616 6.30406 1.03194C6.81447 1.26395 7.21883 1.58213 7.51712 1.98648C7.81873 2.39084 7.97782 2.84988 7.9944 3.36361H6.80121Z" fill="#5C5F6A"/>
</svg>
