<svg width="136" height="25" viewBox="0 0 136 25" fill="none" xmlns="http://www.w3.org/2000/svg">
<path d="M129.534 24.1818C128.358 24.1818 127.349 24.0199 126.509 23.696C125.673 23.3778 125.009 22.9432 124.514 22.392C124.02 21.8409 123.699 21.2216 123.551 20.5341L126.909 20.0824C127.011 20.3437 127.173 20.588 127.395 20.8153C127.617 21.0426 127.909 21.2244 128.273 21.3608C128.642 21.5028 129.091 21.5738 129.619 21.5738C130.409 21.5738 131.06 21.3807 131.571 20.9943C132.088 20.6136 132.347 19.9744 132.347 19.0767V16.6818H132.193C132.034 17.0454 131.796 17.3892 131.477 17.713C131.159 18.0369 130.75 18.3011 130.25 18.5057C129.75 18.7102 129.153 18.8125 128.46 18.8125C127.477 18.8125 126.582 18.5852 125.776 18.1307C124.974 17.6704 124.335 16.9687 123.858 16.0255C123.386 15.0767 123.151 13.8778 123.151 12.429C123.151 10.946 123.392 9.70737 123.875 8.71305C124.358 7.71873 125 6.97441 125.801 6.48009C126.608 5.98578 127.492 5.73862 128.452 5.73862C129.185 5.73862 129.798 5.86362 130.293 6.11362C130.787 6.35793 131.185 6.66475 131.486 7.03407C131.793 7.39771 132.028 7.75566 132.193 8.10793H132.33V5.90907H135.935V19.1278C135.935 20.2415 135.662 21.1733 135.117 21.9233C134.571 22.6733 133.815 23.2358 132.849 23.6108C131.889 23.9915 130.784 24.1818 129.534 24.1818ZM129.611 16.0852C130.196 16.0852 130.69 15.9403 131.094 15.6505C131.503 15.3551 131.815 14.9346 132.031 14.3892C132.253 13.838 132.364 13.179 132.364 12.4119C132.364 11.6449 132.256 10.9801 132.04 10.4176C131.824 9.84941 131.511 9.40907 131.102 9.09657C130.693 8.78407 130.196 8.62782 129.611 8.62782C129.014 8.62782 128.511 8.78975 128.102 9.11362C127.693 9.4318 127.384 9.87498 127.173 10.4432C126.963 11.0113 126.858 11.6676 126.858 12.4119C126.858 13.1676 126.963 13.821 127.173 14.3721C127.389 14.9176 127.699 15.3409 128.102 15.642C128.511 15.9375 129.014 16.0852 129.611 16.0852Z" fill="#0E1422"/>
<path d="M112.337 11.4318V19H108.707V5.90907H112.167V8.21873H112.32C112.61 7.45737 113.096 6.85509 113.778 6.41191C114.46 5.96305 115.286 5.73862 116.258 5.73862C117.167 5.73862 117.96 5.93748 118.636 6.33521C119.312 6.73293 119.837 7.30112 120.212 8.03975C120.587 8.77271 120.775 9.64771 120.775 10.6648V19H117.144V11.3125C117.15 10.5113 116.945 9.88634 116.531 9.43748C116.116 8.98294 115.545 8.75566 114.817 8.75566C114.329 8.75566 113.897 8.86078 113.522 9.071C113.153 9.28123 112.863 9.58805 112.653 9.99146C112.448 10.3892 112.343 10.8693 112.337 11.4318Z" fill="#0E1422"/>
<path d="M102.168 19V5.90907H105.798V19H102.168ZM103.991 4.22157C103.452 4.22157 102.989 4.0426 102.602 3.68464C102.222 3.32101 102.031 2.88635 102.031 2.38067C102.031 1.88067 102.222 1.45169 102.602 1.09373C102.989 0.730097 103.452 0.548279 103.991 0.548279C104.531 0.548279 104.991 0.730097 105.372 1.09373C105.759 1.45169 105.952 1.88067 105.952 2.38067C105.952 2.88635 105.759 3.32101 105.372 3.68464C104.991 4.0426 104.531 4.22157 103.991 4.22157Z" fill="#0E1422"/>
<path d="M99.2592 1.54544V19H95.6285V1.54544H99.2592Z" fill="#0E1422"/>
<path d="M92.7202 1.54544V19H89.0895V1.54544H92.7202Z" fill="#0E1422"/>
<path d="M80.7117 19.2557C79.3651 19.2557 78.206 18.9829 77.2345 18.4375C76.2685 17.8863 75.5242 17.1079 75.0015 16.1023C74.4788 15.0909 74.2174 13.8949 74.2174 12.5142C74.2174 11.1676 74.4788 9.98578 75.0015 8.96873C75.5242 7.95169 76.26 7.15907 77.2089 6.59089C78.1634 6.02271 79.2828 5.73862 80.5668 5.73862C81.4305 5.73862 82.2344 5.87782 82.9788 6.15623C83.7288 6.42896 84.3822 6.84089 84.939 7.39203C85.5015 7.94316 85.939 8.63634 86.2515 9.47157C86.564 10.3011 86.7202 11.2727 86.7202 12.3863V13.3835H75.6663V11.1335H83.3026C83.3026 10.6108 83.189 10.1477 82.9617 9.7443C82.7345 9.34089 82.4191 9.02555 82.0157 8.79828C81.618 8.56532 81.1549 8.44884 80.6265 8.44884C80.0754 8.44884 79.5867 8.57669 79.1606 8.83237C78.7401 9.08237 78.4106 9.42043 78.172 9.84657C77.9333 10.267 77.8112 10.7358 77.8055 11.2528V13.392C77.8055 14.0398 77.9248 14.5994 78.1634 15.071C78.4077 15.5426 78.7515 15.9062 79.1947 16.1619C79.6379 16.4176 80.1634 16.5454 80.7714 16.5454C81.1748 16.5454 81.5441 16.4886 81.8793 16.375C82.2146 16.2613 82.5015 16.0909 82.7401 15.8636C82.9788 15.6363 83.1606 15.3579 83.2856 15.0284L86.6435 15.25C86.4731 16.0568 86.1237 16.7613 85.5952 17.3636C85.0725 17.9602 84.3964 18.4261 83.5668 18.7613C82.743 19.0909 81.7913 19.2557 80.7117 19.2557Z" fill="#0E1422"/>
<path d="M68.5562 6.56532C68.488 5.87782 68.1954 5.34373 67.6783 4.96304C67.1613 4.58236 66.4596 4.39202 65.5732 4.39202C64.9709 4.39202 64.4624 4.47725 64.0476 4.6477C63.6329 4.81248 63.3147 5.04259 63.0931 5.33804C62.8772 5.6335 62.7692 5.96873 62.7692 6.34373C62.7579 6.65623 62.8232 6.92895 62.9652 7.16191C63.113 7.39486 63.3147 7.59657 63.5704 7.76702C63.826 7.93179 64.1215 8.07668 64.4567 8.20168C64.7919 8.321 65.1499 8.42327 65.5306 8.5085L67.0988 8.8835C67.8601 9.05395 68.559 9.28122 69.1954 9.56532C69.8317 9.84941 70.3829 10.1988 70.8488 10.6136C71.3147 11.0284 71.6755 11.517 71.9312 12.0795C72.1925 12.642 72.326 13.2869 72.3317 14.0142C72.326 15.0824 72.0533 16.0085 71.5135 16.7926C70.9795 17.571 70.2067 18.1761 69.1954 18.6079C68.1897 19.0341 66.9766 19.2471 65.5562 19.2471C64.1471 19.2471 62.9198 19.0312 61.8743 18.5994C60.8346 18.1676 60.0221 17.5284 59.4368 16.6818C58.8573 15.8295 58.5533 14.7755 58.5249 13.5199H62.0959C62.1357 14.1051 62.3033 14.5937 62.5988 14.9858C62.8999 15.3721 63.3005 15.6647 63.8005 15.8636C64.3062 16.0568 64.8772 16.1534 65.5135 16.1534C66.1385 16.1534 66.6812 16.0625 67.1414 15.8807C67.6073 15.6988 67.9681 15.446 68.2238 15.1221C68.4795 14.7983 68.6073 14.4261 68.6073 14.0057C68.6073 13.6136 68.4908 13.2841 68.2579 13.017C68.0306 12.75 67.6954 12.5227 67.2522 12.3352C66.8147 12.1477 66.2777 11.9772 65.6414 11.8238L63.7408 11.3466C62.2692 10.9886 61.1073 10.429 60.255 9.66759C59.4027 8.90623 58.9794 7.88066 58.9851 6.59088C58.9794 5.53407 59.2607 4.61077 59.8289 3.821C60.4027 3.03123 61.1897 2.41475 62.1897 1.97157C63.1897 1.52838 64.326 1.30679 65.5988 1.30679C66.8942 1.30679 68.0249 1.52838 68.9908 1.97157C69.9624 2.41475 70.7181 3.03123 71.2579 3.821C71.7976 4.61077 72.076 5.52554 72.0931 6.56532H68.5562Z" fill="#0E1422"/>
<path d="M51.0995 5.90907V8.63634H43.2159V5.90907H51.0995ZM45.0057 2.77271H48.6364V14.9773C48.6364 15.3125 48.6875 15.5738 48.7898 15.7613C48.8921 15.9432 49.0341 16.071 49.2159 16.1449C49.4034 16.2187 49.6194 16.2557 49.8637 16.2557C50.0341 16.2557 50.2046 16.2415 50.375 16.213C50.5455 16.179 50.6762 16.1534 50.7671 16.1363L51.3381 18.838C51.1563 18.8949 50.9006 18.9602 50.5711 19.0341C50.2415 19.1136 49.8409 19.1619 49.3694 19.179C48.4944 19.213 47.7273 19.0966 47.0682 18.8295C46.4148 18.5625 45.9063 18.1477 45.5426 17.5852C45.179 17.0227 45 16.3125 45.0057 15.4545V2.77271Z" fill="#0E1422"/>
<path d="M41.5519 9.64203L38.228 9.84657C38.1712 9.56248 38.0491 9.3068 37.8616 9.07953C37.6741 8.84657 37.4269 8.66191 37.1201 8.52555C36.819 8.3835 36.4582 8.31248 36.0377 8.31248C35.4752 8.31248 35.0008 8.4318 34.6144 8.67043C34.228 8.90339 34.0349 9.21589 34.0349 9.60793C34.0349 9.92043 34.1599 10.1846 34.4099 10.4005C34.6599 10.6165 35.0888 10.7898 35.6968 10.9204L38.0661 11.3977C39.3388 11.6591 40.2877 12.0795 40.9127 12.6591C41.5377 13.2386 41.8502 14 41.8502 14.9432C41.8502 15.8011 41.5974 16.554 41.0917 17.2017C40.5917 17.8494 39.9042 18.3551 39.0292 18.7187C38.1599 19.0767 37.157 19.2557 36.0207 19.2557C34.2877 19.2557 32.907 18.8949 31.8786 18.1733C30.8559 17.446 30.2565 16.4574 30.0803 15.2074L33.6513 15.0199C33.7593 15.5483 34.0207 15.9517 34.4354 16.2301C34.8502 16.5028 35.3815 16.6392 36.0292 16.6392C36.6655 16.6392 37.1769 16.517 37.5633 16.2727C37.9553 16.0227 38.1542 15.7017 38.1599 15.3096C38.1542 14.9801 38.015 14.7102 37.7423 14.5C37.4695 14.2841 37.0491 14.1193 36.4809 14.0057L34.2138 13.554C32.9354 13.2983 31.9837 12.8551 31.3587 12.2244C30.7394 11.5937 30.4298 10.7898 30.4298 9.81248C30.4298 8.97157 30.657 8.24714 31.1116 7.63918C31.5718 7.03123 32.2167 6.56248 33.0462 6.23293C33.8815 5.90339 34.8587 5.73862 35.978 5.73862C37.6315 5.73862 38.9326 6.08805 39.8815 6.78691C40.836 7.48578 41.3928 8.43748 41.5519 9.64203Z" fill="#0E1422"/>
<path d="M22.2819 19.2557C20.9353 19.2557 19.7762 18.9829 18.8046 18.4375C17.8387 17.8863 17.0944 17.1079 16.5717 16.1023C16.049 15.0909 15.7876 13.8949 15.7876 12.5142C15.7876 11.1676 16.049 9.98578 16.5717 8.96873C17.0944 7.95169 17.8302 7.15907 18.7791 6.59089C19.7336 6.02271 20.8529 5.73862 22.137 5.73862C23.0007 5.73862 23.8046 5.87782 24.549 6.15623C25.299 6.42896 25.9524 6.84089 26.5092 7.39203C27.0717 7.94316 27.5092 8.63634 27.8217 9.47157C28.1342 10.3011 28.2904 11.2727 28.2904 12.3863V13.3835H17.2365V11.1335H24.8728C24.8728 10.6108 24.7592 10.1477 24.5319 9.7443C24.3046 9.34089 23.9893 9.02555 23.5859 8.79828C23.1882 8.56532 22.7251 8.44884 22.1967 8.44884C21.6456 8.44884 21.1569 8.57669 20.7308 8.83237C20.3103 9.08237 19.9808 9.42043 19.7421 9.84657C19.5035 10.267 19.3813 10.7358 19.3757 11.2528V13.392C19.3757 14.0398 19.495 14.5994 19.7336 15.071C19.9779 15.5426 20.3217 15.9062 20.7649 16.1619C21.2081 16.4176 21.7336 16.5454 22.3416 16.5454C22.745 16.5454 23.1143 16.4886 23.4495 16.375C23.7848 16.2613 24.0717 16.0909 24.3103 15.8636C24.549 15.6363 24.7308 15.3579 24.8558 15.0284L28.2137 15.25C28.0433 16.0568 27.6938 16.7613 27.1654 17.3636C26.6427 17.9602 25.9666 18.4261 25.137 18.7613C24.3132 19.0909 23.3615 19.2557 22.2819 19.2557Z" fill="#0E1422"/>
<path d="M0.51709 19V1.54544H7.50573C8.78982 1.54544 9.86084 1.73578 10.7188 2.11646C11.5767 2.49715 12.2216 3.02555 12.6535 3.70169C13.0853 4.37215 13.3012 5.14487 13.3012 6.01987C13.3012 6.70169 13.1648 7.30112 12.8921 7.81817C12.6194 8.32953 12.2444 8.74999 11.7671 9.07953C11.2955 9.4034 10.7557 9.63351 10.1478 9.76987V9.94033C10.8125 9.96874 11.4347 10.1562 12.0142 10.5028C12.5995 10.8494 13.0739 11.3352 13.4375 11.9602C13.8012 12.5795 13.983 13.3182 13.983 14.1761C13.983 15.1023 13.7529 15.929 13.2927 16.6562C12.8381 17.3778 12.1648 17.9489 11.2728 18.3693C10.3807 18.7898 9.28129 19 7.97448 19H0.51709ZM4.20743 15.9829H7.21595C8.24436 15.9829 8.99436 15.7869 9.46595 15.3949C9.93754 14.9971 10.1733 14.4687 10.1733 13.8096C10.1733 13.3267 10.0569 12.9006 9.82391 12.5312C9.59095 12.1619 9.25857 11.8721 8.82675 11.6619C8.40061 11.4517 7.89209 11.3466 7.30118 11.3466H4.20743V15.9829ZM4.20743 8.84942H6.94323C7.44891 8.84942 7.89777 8.76135 8.28982 8.58521C8.68754 8.4034 9.00005 8.14771 9.22732 7.81817C9.46027 7.48862 9.57675 7.09374 9.57675 6.63351C9.57675 6.00283 9.35232 5.4943 8.90345 5.10794C8.46027 4.72158 7.82959 4.52839 7.01141 4.52839H4.20743V8.84942Z" fill="#0E1422"/>
</svg>
