<svg width="71" height="10" viewBox="0 0 71 10" fill="none" xmlns="http://www.w3.org/2000/svg">
<path d="M61.6528 9.00001L59.2323 0.272736H60.6172L62.3175 7.03126H62.3985L64.167 0.272736H65.5391L67.3076 7.03552H67.3885L69.0846 0.272736H70.4738L68.0491 9.00001H66.7238L64.8871 2.46308H64.8189L62.9823 9.00001H61.6528Z" fill="#878A92"/>
<path d="M57.8078 4.63637C57.8078 5.56818 57.6373 6.36932 57.2964 7.03978C56.9555 7.70739 56.4882 8.22159 55.8944 8.58239C55.3035 8.94034 54.6316 9.11932 53.8788 9.11932C53.1231 9.11932 52.4484 8.94034 51.8546 8.58239C51.2637 8.22159 50.7978 7.70597 50.4569 7.03551C50.116 6.36506 49.9456 5.56534 49.9456 4.63637C49.9456 3.70455 50.116 2.90483 50.4569 2.23722C50.7978 1.56676 51.2637 1.05256 51.8546 0.694605C52.4484 0.333809 53.1231 0.153412 53.8788 0.153412C54.6316 0.153412 55.3035 0.333809 55.8944 0.694605C56.4882 1.05256 56.9555 1.56676 57.2964 2.23722C57.6373 2.90483 57.8078 3.70455 57.8078 4.63637ZM56.5038 4.63637C56.5038 3.92614 56.3887 3.32813 56.1586 2.84233C55.9314 2.3537 55.6189 1.98438 55.2211 1.73438C54.8262 1.48154 54.3788 1.35512 53.8788 1.35512C53.376 1.35512 52.9271 1.48154 52.5322 1.73438C52.1373 1.98438 51.8248 2.3537 51.5947 2.84233C51.3674 3.32813 51.2538 3.92614 51.2538 4.63637C51.2538 5.34659 51.3674 5.94603 51.5947 6.43466C51.8248 6.92046 52.1373 7.28978 52.5322 7.54262C52.9271 7.79262 53.376 7.91762 53.8788 7.91762C54.3788 7.91762 54.8262 7.79262 55.2211 7.54262C55.6189 7.28978 55.9314 6.92046 56.1586 6.43466C56.3887 5.94603 56.5038 5.34659 56.5038 4.63637Z" fill="#878A92"/>
<path d="M47.7059 0.272736V9.00001H46.4957L42.0596 2.59944H41.9786V9.00001H40.6619V0.272736H41.8806L46.321 6.68183H46.4019V0.272736H47.7059Z" fill="#878A92"/>
<path d="M28.6104 9.00001V0.272736H31.7211C32.4001 0.272736 32.9626 0.396315 33.4086 0.643474C33.8547 0.890633 34.1885 1.2287 34.4101 1.65768C34.6317 2.08382 34.7425 2.56393 34.7425 3.09802C34.7425 3.63495 34.6302 4.11791 34.4058 4.54688C34.1842 4.97302 33.849 5.31109 33.4001 5.56109C32.9541 5.80825 32.393 5.93183 31.7169 5.93183H29.5777V4.81535H31.5976C32.0265 4.81535 32.3746 4.74149 32.6416 4.59376C32.9086 4.44319 33.1047 4.23865 33.2297 3.98012C33.3547 3.7216 33.4172 3.42757 33.4172 3.09802C33.4172 2.76847 33.3547 2.47586 33.2297 2.22018C33.1047 1.9645 32.9072 1.76421 32.6373 1.61933C32.3703 1.47444 32.018 1.402 31.5805 1.402H29.9271V9.00001H28.6104Z" fill="#878A92"/>
<path d="M26.3687 4.63637C26.3687 5.56818 26.1982 6.36932 25.8573 7.03978C25.5164 7.70739 25.0491 8.22159 24.4553 8.58239C23.8644 8.94034 23.1925 9.11932 22.4397 9.11932C21.684 9.11932 21.0093 8.94034 20.4156 8.58239C19.8247 8.22159 19.3587 7.70597 19.0178 7.03551C18.6769 6.36506 18.5065 5.56534 18.5065 4.63637C18.5065 3.70455 18.6769 2.90483 19.0178 2.23722C19.3587 1.56676 19.8247 1.05256 20.4156 0.694605C21.0093 0.333809 21.684 0.153412 22.4397 0.153412C23.1925 0.153412 23.8644 0.333809 24.4553 0.694605C25.0491 1.05256 25.5164 1.56676 25.8573 2.23722C26.1982 2.90483 26.3687 3.70455 26.3687 4.63637ZM25.0647 4.63637C25.0647 3.92614 24.9497 3.32813 24.7195 2.84233C24.4923 2.3537 24.1798 1.98438 23.782 1.73438C23.3872 1.48154 22.9397 1.35512 22.4397 1.35512C21.9369 1.35512 21.488 1.48154 21.0931 1.73438C20.6982 1.98438 20.3857 2.3537 20.1556 2.84233C19.9283 3.32813 19.8147 3.92614 19.8147 4.63637C19.8147 5.34659 19.9283 5.94603 20.1556 6.43466C20.3857 6.92046 20.6982 7.28978 21.0931 7.54262C21.488 7.79262 21.9369 7.91762 22.4397 7.91762C22.9397 7.91762 23.3872 7.79262 23.782 7.54262C24.1798 7.28978 24.4923 6.92046 24.7195 6.43466C24.9497 5.94603 25.0647 5.34659 25.0647 4.63637Z" fill="#878A92"/>
<path d="M9.28149 9.00001V0.272736H10.5983V4.06535H14.9491V0.272736H16.2701V9.00001H14.9491V5.19461H10.5983V9.00001H9.28149Z" fill="#878A92"/>
<path d="M5.71876 2.56534C5.67331 2.16193 5.48581 1.84943 5.15626 1.62784C4.82672 1.40341 4.41194 1.2912 3.91194 1.2912C3.55399 1.2912 3.24433 1.34801 2.98297 1.46165C2.7216 1.57245 2.51848 1.72585 2.37359 1.92188C2.23155 2.11506 2.16052 2.33523 2.16052 2.58239C2.16052 2.78977 2.20882 2.96875 2.30541 3.11932C2.40484 3.26989 2.5341 3.39631 2.69319 3.49858C2.85512 3.59801 3.02842 3.68182 3.21308 3.75C3.39774 3.81534 3.5753 3.86932 3.74575 3.91193L4.59802 4.13353C4.87643 4.20171 5.16194 4.29404 5.45456 4.41051C5.74717 4.52699 6.01848 4.6804 6.26848 4.87074C6.51848 5.06108 6.72018 5.29688 6.87359 5.57813C7.02984 5.85938 7.10797 6.19603 7.10797 6.58807C7.10797 7.08239 6.98012 7.52131 6.72444 7.90483C6.4716 8.28835 6.1037 8.59091 5.62075 8.8125C5.14064 9.03409 4.55967 9.14489 3.87785 9.14489C3.22444 9.14489 2.6591 9.0412 2.18183 8.83381C1.70456 8.62642 1.33098 8.33239 1.06109 7.95171C0.791204 7.56818 0.642057 7.11364 0.613647 6.58807H1.93467C1.96024 6.90341 2.06251 7.1662 2.24149 7.37642C2.42331 7.58381 2.65484 7.73864 2.93609 7.84091C3.22018 7.94034 3.53126 7.99006 3.86933 7.99006C4.24149 7.99006 4.57245 7.93182 4.86223 7.81534C5.15484 7.69603 5.38495 7.53125 5.55257 7.32103C5.72018 7.10796 5.80399 6.85938 5.80399 6.57529C5.80399 6.31676 5.73012 6.10512 5.5824 5.94034C5.43751 5.77557 5.24007 5.63921 4.99007 5.53125C4.74291 5.4233 4.46308 5.32813 4.15058 5.24574L3.11933 4.96449C2.42047 4.77415 1.86649 4.49432 1.4574 4.125C1.05115 3.75568 0.848022 3.26705 0.848022 2.65909C0.848022 2.15625 0.984386 1.71733 1.25711 1.34233C1.52984 0.967332 1.89916 0.676139 2.36507 0.468753C2.83098 0.258525 3.35655 0.153412 3.94177 0.153412C4.53268 0.153412 5.05399 0.257105 5.50569 0.464491C5.96024 0.671878 6.31819 0.957389 6.57956 1.32102C6.84092 1.68182 6.97728 2.09659 6.98865 2.56534H5.71876Z" fill="#878A92"/>
</svg>
